<?xml version="1.0" encoding="UTF-8"?>
<svg version="1.1" xmlns="http://www.w3.org/2000/svg" width="209" height="139">
<path d="M0 0 C0.83901855 -0.02231689 1.67803711 -0.04463379 2.54248047 -0.06762695 C10.71700128 -0.03800332 17.14807951 2.79203412 23.6875 7.625 C27.03025508 10.06698151 30.40792844 12.40885769 33.86669922 14.68383789 C41.83150465 19.984917 48.30612452 25.96067943 52.9375 34.4375 C52.9375 35.0975 52.9375 35.7575 52.9375 36.4375 C53.494375 35.9425 54.05125 35.4475 54.625 34.9375 C57.37075478 33.15646987 58.72359323 33.02546067 61.9375 33.4375 C62.9275 34.0975 63.9175 34.7575 64.9375 35.4375 C65.2675 35.1075 65.5975 34.7775 65.9375 34.4375 C68.6967273 34.14705502 70.37447676 34.1184535 72.8125 35.5 C74.62035443 38.61352707 73.71398941 41.0328926 72.9375 44.4375 C71.875 46.875 71.875 46.875 70.9375 48.4375 C72.13375 48.045625 73.33 47.65375 74.5625 47.25 C77.9344867 46.40252724 78.81593287 46.39391933 82.25 47.625 C86.45514706 50.46102941 86.45514706 50.46102941 87.9375 52.4375 C87.9375 53.4275 87.9375 54.4175 87.9375 55.4375 C88.700625 55.540625 89.46375 55.64375 90.25 55.75 C93.12166484 56.48461194 94.16792094 57.1091065 95.9375 59.4375 C95.9375 60.0975 95.9375 60.7575 95.9375 61.4375 C97.5875 62.0975 99.2375 62.7575 100.9375 63.4375 C101.30983816 68.09172701 101.40257989 71.48945253 99.3125 75.75 C95.94328413 79.56253375 93.07331331 82.12602723 87.9375 82.875 C84.46270993 82.36825978 82.01951421 81.08124091 78.9375 79.4375 C75.88470048 79.139338 75.88470048 79.139338 73.75 81.0625 C70.23756949 82.77968825 68.65952177 82.32286453 65 81.37109375 C62.27483097 80.13754186 60.208228 78.36525345 57.9375 76.4375 C57.71835938 77.24832031 57.49921875 78.05914062 57.2734375 78.89453125 C50.78015418 101.56823195 37.5592476 111.98175975 18.08178711 123.53857422 C4.5332291 129.21838642 -17.29364814 124.37156251 -30.515625 119.046875 C-40.04512498 114.58725678 -46.22924627 108.90349318 -52 100.1875 C-52.49306641 99.46820313 -52.98613281 98.74890625 -53.49414062 98.0078125 C-57.0625 92.72208738 -57.0625 92.72208738 -57.0625 90.4375 C-57.7225 90.251875 -58.3825 90.06625 -59.0625 89.875 C-62.66688227 88.14790016 -65.18077488 85.86239836 -68.125 83.19140625 C-70.35881861 81.16925997 -72.68856931 79.29213335 -75.0625 77.4375 C-75.495625 78.38625 -75.92875 79.335 -76.375 80.3125 C-78.0625 83.4375 -78.0625 83.4375 -81.0625 85.4375 C-84.87520604 85.29628867 -87.57146924 84.67779165 -91 83 C-93.77222689 79.55571811 -93.58338959 77.134436 -93.36328125 72.8203125 C-93.01586058 70.06801888 -92.22358296 67.95317975 -91.0625 65.4375 C-90.53213754 63.07534719 -90.06638219 60.70843609 -89.625 58.328125 C-89.439375 57.70421875 -89.25375 57.0803125 -89.0625 56.4375 C-88.0725 55.9425 -88.0725 55.9425 -87.0625 55.4375 C-85.92698615 52.69579299 -84.90487899 49.9878076 -83.9375 47.1875 C-83.66035156 46.42308594 -83.38320312 45.65867188 -83.09765625 44.87109375 C-81.69247769 40.86321993 -80.94984489 37.71839435 -81.0625 33.4375 C-79.0625 31.4375 -79.0625 31.4375 -75.9375 31.0625 C-71.34152844 31.50727144 -67.86596692 32.82316297 -64.0625 35.4375 C-61.27612367 39.6170645 -62.26687488 41.58418677 -63.0625 46.4375 C-61.06415028 43.16635522 -59.19326625 39.84500005 -57.36279297 36.47753906 C-48.89779103 21.13759982 -36.32262143 10.17148968 -20.0625 3.4375 C-19.35867187 3.12039062 -18.65484375 2.80328125 -17.9296875 2.4765625 C-12.07733536 0.25389217 -6.1898752 0.09800919 0 0 Z M-6.0625 2.4375 C-6.0625 2.7675 -6.0625 3.0975 -6.0625 3.4375 C-5.23842651 3.56596313 -5.23842651 3.56596313 -4.39770508 3.69702148 C-1.88996392 4.08858339 0.61751877 4.4817772 3.125 4.875 C4.42147461 5.07706055 4.42147461 5.07706055 5.74414062 5.28320312 C9.82681675 5.92454305 13.89419077 6.57526221 17.9375 7.4375 C10.97644383 1.31177057 2.67338846 2.20103986 -6.0625 2.4375 Z M-65.0625 47.4375 C-64.0625 49.4375 -64.0625 49.4375 -64.0625 49.4375 Z M44.9375 47.4375 C45.9375 49.4375 45.9375 49.4375 45.9375 49.4375 Z M24.9375 112.4375 C24.6075 113.0975 24.2775 113.7575 23.9375 114.4375 C24.9275 114.1075 25.9175 113.7775 26.9375 113.4375 C26.2775 113.1075 25.6175 112.7775 24.9375 112.4375 Z M-19.0625 113.4375 C-15.0625 114.4375 -15.0625 114.4375 -15.0625 114.4375 Z M-2.0625 113.4375 C-2.0625 113.7675 -2.0625 114.0975 -2.0625 114.4375 C0.5775 114.4375 3.2175 114.4375 5.9375 114.4375 C5.9375 114.1075 5.9375 113.7775 5.9375 113.4375 C3.2975 113.4375 0.6575 113.4375 -2.0625 113.4375 Z " fill="#492A10" transform="translate(101.0625,7.5625)"/>
<path d="M0 0 C0.83901855 -0.02231689 1.67803711 -0.04463379 2.54248047 -0.06762695 C10.71700128 -0.03800332 17.14807951 2.79203412 23.6875 7.625 C27.03025508 10.06698151 30.40792844 12.40885769 33.86669922 14.68383789 C41.74026242 19.92418956 48.52145941 25.92658542 52.9375 34.4375 C52.9375 35.7575 52.9375 37.0775 52.9375 38.4375 C52.2775 38.4375 51.6175 38.4375 50.9375 38.4375 C50.751875 39.55125 50.751875 39.55125 50.5625 40.6875 C49.98263299 43.23891485 49.20041261 45.1642573 47.9375 47.4375 C46.9475 47.4375 45.9575 47.4375 44.9375 47.4375 C44.9375 49.0875 44.9375 50.7375 44.9375 52.4375 C41.6375 53.4275 38.3375 54.4175 34.9375 55.4375 C34.195 54.65375 33.4525 53.87 32.6875 53.0625 C28.48892679 49.05477103 25.92239344 47.99021735 19.9765625 48.1015625 C16.59572792 48.65855824 14.58560837 50.3190133 11.9375 52.4375 C10.9475 51.1175 9.9575 49.7975 8.9375 48.4375 C10.2575 48.1075 11.5775 47.7775 12.9375 47.4375 C12.9375 45.7875 12.9375 44.1375 12.9375 42.4375 C11.47869891 42.57857747 10.02046449 42.72552415 8.5625 42.875 C7.75039062 42.95621094 6.93828125 43.03742187 6.1015625 43.12109375 C3.89477195 43.32840114 3.89477195 43.32840114 1.9375 44.4375 C2.2675 45.4275 2.5975 46.4175 2.9375 47.4375 C-0.0325 48.0975 -3.0025 48.7575 -6.0625 49.4375 C-6.5575 47.4575 -6.5575 47.4575 -7.0625 45.4375 C-8.3 45.169375 -9.5375 44.90125 -10.8125 44.625 C-14.16533779 43.79868005 -16.47345936 42.81078726 -19.0625 40.4375 C-19.0625 42.0875 -19.0625 43.7375 -19.0625 45.4375 C-18.4025 45.4375 -17.7425 45.4375 -17.0625 45.4375 C-18.8125 49.3125 -18.8125 49.3125 -21.0625 50.4375 C-21.7225 48.1275 -22.3825 45.8175 -23.0625 43.4375 C-24.0525 43.4375 -25.0425 43.4375 -26.0625 43.4375 C-25.876875 44.05625 -25.69125 44.675 -25.5 45.3125 C-25.0625 47.4375 -25.0625 47.4375 -26.0625 49.4375 C-29.8688457 48.76579194 -33.41456816 47.71003436 -37.0625 46.4375 C-37.041875 45.633125 -37.02125 44.82875 -37 44 C-36.76616379 41.50395115 -36.76616379 41.50395115 -38.0625 40.4375 C-38.7225 40.4375 -39.3825 40.4375 -40.0625 40.4375 C-40.3925 38.4575 -40.7225 36.4775 -41.0625 34.4375 C-42.66314843 33.90595258 -44.26818874 33.38761647 -45.875 32.875 C-46.76832031 32.58496094 -47.66164063 32.29492188 -48.58203125 31.99609375 C-51.17465139 31.18770444 -51.17465139 31.18770444 -54.0625 32.4375 C-49.58942511 19.87342199 -36.1800485 11.47065245 -24.8125 5.5 C-23.24037736 4.787237 -21.65729717 4.09797156 -20.0625 3.4375 C-19.35867187 3.12039062 -18.65484375 2.80328125 -17.9296875 2.4765625 C-12.07733536 0.25389217 -6.1898752 0.09800919 0 0 Z M-6.0625 2.4375 C-6.0625 2.7675 -6.0625 3.0975 -6.0625 3.4375 C-5.23842651 3.56596313 -5.23842651 3.56596313 -4.39770508 3.69702148 C-1.88996392 4.08858339 0.61751877 4.4817772 3.125 4.875 C4.42147461 5.07706055 4.42147461 5.07706055 5.74414062 5.28320312 C9.82681675 5.92454305 13.89419077 6.57526221 17.9375 7.4375 C10.97644383 1.31177057 2.67338846 2.20103986 -6.0625 2.4375 Z " fill="#D8A422" transform="translate(101.0625,7.5625)"/>
<path d="M0 0 C0.99 0.66 1.98 1.32 3 2 C3.33 1.67 3.66 1.34 4 1 C6.7592273 0.70955502 8.43697676 0.6809535 10.875 2.0625 C12.68285443 5.17602707 11.77648941 7.5953926 11 11 C9.9375 13.4375 9.9375 13.4375 9 15 C10.19625 14.608125 11.3925 14.21625 12.625 13.8125 C15.9969867 12.96502724 16.87843287 12.95641933 20.3125 14.1875 C24.51764706 17.02352941 24.51764706 17.02352941 26 19 C26 19.99 26 20.98 26 22 C26.763125 22.103125 27.52625 22.20625 28.3125 22.3125 C31.18416484 23.04711194 32.23042094 23.6716065 34 26 C34 26.66 34 27.32 34 28 C35.65 28.66 37.3 29.32 39 30 C39.37233816 34.65422701 39.46507989 38.05195253 37.375 42.3125 C34.00578413 46.12503375 31.13581331 48.68852723 26 49.4375 C22.52520993 48.93075978 20.08201421 47.64374091 17 46 C13.94720048 45.701838 13.94720048 45.701838 11.8125 47.625 C8.27924848 49.35236741 6.59389808 49.00619069 2.93359375 47.84375 C-0.37362746 46.40059893 -1.94917403 44.98301959 -4 42 C-4.6842787 38.66541796 -4.92739328 35.39931447 -5 32 C-5.66 32 -6.32 32 -7 32 C-7.103125 32.53625 -7.20625 33.0725 -7.3125 33.625 C-8 36 -8 36 -9.375 38.625 C-12.10699661 44.2991468 -13.92152448 50.15525585 -14.5 56.4375 C-15 60 -15 60 -16.1875 62 C-18.89933717 63.49618602 -20.95460372 63.31075472 -24 63 C-25.3479743 62.36345658 -26.68596724 61.70394612 -28 61 C-28.99 61.495 -28.99 61.495 -30 62 C-29.67 60.68 -29.34 59.36 -29 58 C-29.66 58 -30.32 58 -31 58 C-31.37125 58.9590625 -31.37125 58.9590625 -31.75 59.9375 C-33 62 -33 62 -35.125 62.75 C-35.74375 62.8325 -36.3625 62.915 -37 63 C-36.525625 62.319375 -36.05125 61.63875 -35.5625 60.9375 C-33.7774364 57.58158044 -33.36846914 54.75838519 -33 51 C-36.3 50.67 -39.6 50.34 -43 50 C-43.66 53.63 -44.32 57.26 -45 61 C-45.33 60.34 -45.66 59.68 -46 59 C-47.65 59 -49.3 59 -51 59 C-50.67 56.03 -50.34 53.06 -50 50 C-51.32 50 -52.64 50 -54 50 C-54.33 50.99 -54.66 51.98 -55 53 C-55.66 52.34 -56.32 51.68 -57 51 C-59.43252661 50.53837573 -59.43252661 50.53837573 -62.125 50.375 C-63.03507812 50.30023438 -63.94515625 50.22546875 -64.8828125 50.1484375 C-65.58148438 50.09945312 -66.28015625 50.05046875 -67 50 C-67.06058594 50.68707031 -67.12117188 51.37414062 -67.18359375 52.08203125 C-67.26738281 52.98308594 -67.35117188 53.88414063 -67.4375 54.8125 C-67.51871094 55.70582031 -67.59992188 56.59914062 -67.68359375 57.51953125 C-68 60 -68 60 -69 63 C-73.20095675 65.47115103 -76.33769093 64.84769256 -81 64 C-83.00003433 64 -85.00027459 64.00000483 -87 64.03515625 C-87.66 64.04417969 -88.32 64.05320312 -89 64.0625 C-89.66 64.07410156 -90.32 64.08570312 -91 64.09765625 C-93 64 -93 64 -97 63 C-97 58.71 -97 54.42 -97 50 C-95.35 50.33 -93.7 50.66 -92 51 C-91.79375 50.278125 -91.5875 49.55625 -91.375 48.8125 C-89.54751837 45.0744694 -87.29561194 43.50753083 -84 41 C-83.34 41.66 -82.68 42.32 -82 43 C-79.42938689 43.64767793 -79.42938689 43.64767793 -77 44 C-76.89171875 43.28714844 -76.7834375 42.57429688 -76.671875 41.83984375 C-74.90280088 34.36241998 -70.14186731 27.59556148 -65 22 C-64.505 22.99 -64.505 22.99 -64 24 C-64.99609375 26.13671875 -64.99609375 26.13671875 -66.4375 28.6875 C-68.6672965 33.00383792 -69.88851715 36.06379359 -69 41 C-67.52006844 43.56338689 -67.52006844 43.56338689 -65 45 C-60.97304363 45.68543938 -59.50263831 45.34966143 -56.125 43 C-55.42375 42.34 -54.7225 41.68 -54 41 C-53.2575 41.515625 -52.515 42.03125 -51.75 42.5625 C-49.2340751 44.17301113 -49.2340751 44.17301113 -47.08984375 43.90625 C-44.0710055 42.59714631 -42.77046666 40.54934671 -40.8125 37.9375 C-39.55855842 36.27876095 -38.29211029 34.62918253 -37 33 C-36.67 33 -36.34 33 -36 33 C-35.9175 34.258125 -35.835 35.51625 -35.75 36.8125 C-35.38123528 39.6716895 -35.24371146 40.72018313 -33.3125 42.9375 C-30.55279949 44.20547051 -28.00800814 44.65818089 -25 45 C-25.165 45.495 -25.33 45.99 -25.5 46.5 C-26.20688818 50.03444089 -26.06005155 53.39690701 -26 57 C-23.69 57.99 -21.38 58.98 -19 60 C-18.95875 58.824375 -18.9175 57.64875 -18.875 56.4375 C-17.70663776 45.85547628 -11.93709261 35.28435557 -7 26 C-5.35 26 -3.7 26 -2 26 C-2 26.66 -2 27.32 -2 28 C-1.34 28 -0.68 28 0 28 C-0.26676204 26.01508358 -0.26676204 26.01508358 -1 24 C-2.485 23.505 -2.485 23.505 -4 23 C-3.39816251 20.97954558 -2.72693904 18.97888961 -2 17 C-1.01 16.505 -1.01 16.505 0 16 C0 16.99 0 17.98 0 19 C0.66 19 1.32 19 2 19 C2.27585937 18.28457031 2.55171875 17.56914063 2.8359375 16.83203125 C3.98248522 14.04261145 5.26227115 11.37709642 6.625 8.6875 C7.29402344 7.36298828 7.29402344 7.36298828 7.9765625 6.01171875 C8.31429687 5.34785156 8.65203125 4.68398438 9 4 C6.53199953 5.15173355 4.95216435 6.04783565 3 8 C2.4121875 7.2265625 2.4121875 7.2265625 1.8125 6.4375 C0.08619609 4.78340657 0.08619609 4.78340657 -2.28515625 4.87890625 C-6.6611276 6.68596204 -8.06940489 10.45871744 -10.25 14.5 C-11.12944552 16.07334329 -12.00961567 17.64628184 -12.890625 19.21875 C-13.27250977 19.91935547 -13.65439453 20.61996094 -14.04785156 21.34179688 C-15 23 -15 23 -16 24 C-17.66617115 24.04063832 -19.33388095 24.042721 -21 24 C-20.01 24.99 -19.02 25.98 -18 27 C-19.64455487 32.60643705 -21.33956328 37.39493445 -25 42 C-25.66 42 -26.32 42 -27 42 C-27.18430864 37.94520982 -26.89325516 35.54985343 -25 32 C-25 30.68 -25 29.36 -25 28 C-26.093125 27.608125 -27.18625 27.21625 -28.3125 26.8125 C-31.96461554 25.26935259 -33.17893178 23.55108303 -35 20 C-37.76148156 17.68859704 -37.76148156 17.68859704 -40.5625 18.3125 C-42.98114611 18.91239838 -42.98114611 18.91239838 -45 20 C-45 19.01 -45 18.02 -45 17 C-45.66 16.67 -46.32 16.34 -47 16 C-43.27518283 13.51678856 -40.31550575 13.35188375 -36 14 C-32.4344871 15.34573833 -29.658197 16.9697786 -27.5625 20.25 C-27.376875 20.8275 -27.19125 21.405 -27 22 C-26.0925 21.505 -25.185 21.01 -24.25 20.5 C-21 19 -21 19 -17 19 C-16.67 17.35 -16.34 15.7 -16 14 C-15.34 14 -14.68 14 -14 14 C-13.731875 13.113125 -13.46375 12.22625 -13.1875 11.3125 C-10.8193601 4.70663607 -7.81416179 -1.00181561 0 0 Z " fill="#4B2C11" transform="translate(163,41)"/>
<path d="M0 0 C0.95547126 14.73018195 -3.59025529 28.28225997 -12.875 39.8125 C-19.72786388 47.2452216 -34.34436339 59.13491524 -44.57104492 60.29052734 C-64.53081591 60.60205855 -86.50027233 60.57325911 -102.19921875 46.04296875 C-104.79557488 43.09742806 -107.12880458 39.98665317 -109.4375 36.8125 C-109.88754395 36.19375 -110.33758789 35.575 -110.80126953 34.9375 C-114 30.37604824 -114 30.37604824 -114 27 C-113.0925 27.165 -112.185 27.33 -111.25 27.5 C-107.88912497 28.10137146 -107.88912497 28.10137146 -104 28 C-104 28.66 -104 29.32 -104 30 C-103.34 29.67 -102.68 29.34 -102 29 C-101.67 28.01 -101.34 27.02 -101 26 C-97.9375 24.8125 -97.9375 24.8125 -95 24 C-94.67 27.3 -94.34 30.6 -94 34 C-93.10796875 33.855625 -92.2159375 33.71125 -91.296875 33.5625 C-90.12640625 33.376875 -88.9559375 33.19125 -87.75 33 C-86.58984375 32.814375 -85.4296875 32.62875 -84.234375 32.4375 C-80.49512237 31.93170737 -77.28843564 31.95280144 -73.5625 32.5625 C-69.743094 33.22090644 -69.743094 33.22090644 -65 32 C-64.34 27.71 -63.68 23.42 -63 19 C-61.39125 18.95875 -59.7825 18.9175 -58.125 18.875 C-56.76761719 18.84019531 -56.76761719 18.84019531 -55.3828125 18.8046875 C-53 19 -53 19 -51 21 C-50.67 20.34 -50.34 19.68 -50 19 C-48.68 19 -47.36 19 -46 19 C-46.33 21.97 -46.66 24.94 -47 28 C-45.35 28 -43.7 28 -42 28 C-41.01 25.03 -40.02 22.06 -39 19 C-31.25 18.875 -31.25 18.875 -29 20 C-28.71428571 27.42857143 -28.71428571 27.42857143 -31 31 C-30.38125 30.34 -29.7625 29.68 -29.125 29 C-27 27 -27 27 -25 27 C-25 27.99 -25 28.98 -25 30 C-24.01 30 -23.02 30 -22 30 C-21.34 30.33 -20.68 30.66 -20 31 C-17 31.25 -17 31.25 -14 31 C-11.56132165 28.56132165 -11.59760993 27.42381759 -11.125 24.0625 C-9.78019716 15.99368298 -7.11136548 8.10144947 -3 1 C-1 0 -1 0 0 0 Z M-33 48 C-33.33 48.66 -33.66 49.32 -34 50 C-33.01 49.67 -32.02 49.34 -31 49 C-31.66 48.67 -32.32 48.34 -33 48 Z M-77 49 C-73 50 -73 50 -73 50 Z M-60 49 C-60 49.33 -60 49.66 -60 50 C-57.36 50 -54.72 50 -52 50 C-52 49.67 -52 49.34 -52 49 C-54.64 49 -57.28 49 -60 49 Z " fill="#C6961F" transform="translate(159,72)"/>
<path d="M0 0 C4.75 0.75 4.75 0.75 7 3 C7.433125 2.505 7.86625 2.01 8.3125 1.5 C10 0 10 0 13 0 C12.41512359 4.00748653 11.15605425 6.85736768 9.0625 10.3125 C8.53785156 11.19550781 8.01320313 12.07851563 7.47265625 12.98828125 C6.74369141 13.98408203 6.74369141 13.98408203 6 15 C5.34 15 4.68 15 4 15 C3.505 14.01 3.505 14.01 3 13 C2.01 14.98 1.02 16.96 0 19 C1.98 19.495 1.98 19.495 4 20 C4 21.32 4 22.64 4 24 C3.34 24 2.68 24 2 24 C2 23.34 2 22.68 2 22 C0.35 22 -1.3 22 -3 22 C-3.25910156 22.83273438 -3.51820313 23.66546875 -3.78515625 24.5234375 C-4.88025498 27.65732131 -6.13214866 30.59814883 -7.51342773 33.609375 C-10.87170305 40.93458531 -13.42107933 48.06028461 -15 56 C-20.75 55.25 -20.75 55.25 -23 53 C-23.1971417 48.86002433 -23.30765478 45.92296433 -22 42 C-23.093125 41.731875 -24.18625 41.46375 -25.3125 41.1875 C-30.42220599 39.54200146 -30.42220599 39.54200146 -32 37 C-32.6875 33.3125 -32.6875 33.3125 -33 30 C-33.53109375 30.71027344 -34.0621875 31.42054687 -34.609375 32.15234375 C-35.31578125 33.07144531 -36.0221875 33.99054688 -36.75 34.9375 C-37.44609375 35.85402344 -38.1421875 36.77054688 -38.859375 37.71484375 C-41.02723049 40.02906905 -41.87563133 40.84882087 -45 41 C-48.25 39.5625 -48.25 39.5625 -51 38 C-51.53625 38.66 -52.0725 39.32 -52.625 40 C-55 42 -55 42 -57.9375 42.5625 C-62.11736219 41.79477021 -63.52506641 40.42123173 -66 37 C-67.33424871 30.32875644 -63.94213862 24.81072377 -61 19 C-66.01040781 25.65647839 -69.82239963 32.29761384 -73 40 C-76.64167599 40.09662822 -78.83390538 39.87620422 -82 38 C-82.5259375 38.7734375 -82.5259375 38.7734375 -83.0625 39.5625 C-85 41 -85 41 -88.5 40.875 C-92 40 -92 40 -93.9375 38.9375 C-95.69959328 35.72427107 -95.17782537 32.6157826 -95 29 C-95.48210937 29.62648438 -95.96421875 30.25296875 -96.4609375 30.8984375 C-97.09257813 31.71570313 -97.72421875 32.53296875 -98.375 33.375 C-99.31472656 34.59316406 -99.31472656 34.59316406 -100.2734375 35.8359375 C-103.5373913 39.92695652 -103.5373913 39.92695652 -106.375 40.375 C-109 40 -109 40 -111.3125 38.375 C-113.52565245 35.26019284 -113.367797 33.78561795 -113 30 C-111.93610858 27.50554962 -110.85971866 25.23588719 -109.5625 22.875 C-106.68633625 17.66918432 -106.68633625 17.66918432 -105 12 C-99.62416107 12.59731544 -99.62416107 12.59731544 -97.0625 14.25 C-96 16 -96 16 -96.2734375 18.24609375 C-97.07766653 21.2943812 -98.22237079 23.96043014 -99.5625 26.8125 C-100.01753906 27.78832031 -100.47257812 28.76414062 -100.94140625 29.76953125 C-101.29074219 30.50558594 -101.64007813 31.24164063 -102 32 C-101.67 32.33 -101.34 32.66 -101 33 C-100.66266846 32.45996338 -100.32533691 31.91992676 -99.9777832 31.36352539 C-98.43854285 28.91943819 -96.87599257 26.49113735 -95.3125 24.0625 C-94.78205078 23.21236328 -94.25160156 22.36222656 -93.70507812 21.48632812 C-93.17978516 20.67744141 -92.65449219 19.86855469 -92.11328125 19.03515625 C-91.63673096 18.2862915 -91.16018066 17.53742676 -90.66918945 16.76586914 C-88.52448417 14.49694223 -87.08668972 14.15964045 -84 14 C-81.6875 15.9375 -81.6875 15.9375 -80 18 C-82.19037174 24.72045875 -84.55765661 31.36724003 -87 38 C-83.00833183 35.60997831 -82.21728363 33.42755751 -81.0625 29 C-79.27972223 22.67149406 -76.88408467 16.89818955 -74 11 C-70.18416621 11.65179251 -67.97118595 12.46898975 -65 15 C-66.21294604 18.72547711 -67.52812198 22.36977984 -69 26 C-68.52949219 25.31292969 -68.05898437 24.62585938 -67.57421875 23.91796875 C-66.95160156 23.01691406 -66.32898438 22.11585937 -65.6875 21.1875 C-64.76517578 19.84751953 -64.76517578 19.84751953 -63.82421875 18.48046875 C-62.31133499 16.42333558 -60.96663865 14.62085603 -59 13 C-55.79827958 13.0820954 -54.23509984 13.83295538 -51.625 15.6875 C-50 18 -50 18 -49.9375 20.5625 C-51.21045964 24.68089883 -52.95524279 28.44606443 -54.84375 32.31640625 C-55.95650724 34.89905567 -56.55945806 37.23159443 -57 40 C-53.58938849 37.14246062 -51.83939924 35.12018031 -50.625 30.8125 C-48.59643974 23.89221158 -44.24333838 16.83537089 -38 13 C-34.31392349 13.07679326 -32.52829302 13.58292657 -29.625 15.875 C-28 18 -28 18 -28 21 C-27.236875 21.12375 -26.47375 21.2475 -25.6875 21.375 C-23 22 -23 22 -20 24 C-20.71452588 28.76350585 -21.79534844 33.34201396 -23 38 C-19.70474877 35.04272325 -17.98883968 32.30729258 -16.25 28.25 C-15.82203125 27.26515625 -15.3940625 26.2803125 -14.953125 25.265625 C-14.63859375 24.51796875 -14.3240625 23.7703125 -14 23 C-15.485 22.505 -15.485 22.505 -17 22 C-17 21.34 -17 20.68 -17 20 C-16.25878906 19.97421875 -15.51757812 19.9484375 -14.75390625 19.921875 C-10.7852349 18.59335523 -9.72466842 15.78852185 -7.9375 12.25 C-5.60664768 7.80061061 -3.29403026 3.84425804 0 0 Z " fill="#F3BC15" transform="translate(159,45)"/>
<path d="M0 0 C9.70390631 5.78423588 19.17890357 14.08653175 23.5625 24.6875 C24.22318289 27.45158149 24.45666045 29.82983217 24.5625 32.6875 C22.9125 33.3475 21.2625 34.0075 19.5625 34.6875 C18.82 33.90375 18.0775 33.12 17.3125 32.3125 C13.11392679 28.30477103 10.54739344 27.24021735 4.6015625 27.3515625 C1.22072792 27.90855824 -0.78939163 29.5690133 -3.4375 31.6875 C-4.4275 30.3675 -5.4175 29.0475 -6.4375 27.6875 C-5.1175 27.3575 -3.7975 27.0275 -2.4375 26.6875 C-2.4375 25.0375 -2.4375 23.3875 -2.4375 21.6875 C-3.89630109 21.82857747 -5.35453551 21.97552415 -6.8125 22.125 C-7.62460938 22.20621094 -8.43671875 22.28742187 -9.2734375 22.37109375 C-11.48022805 22.57840114 -11.48022805 22.57840114 -13.4375 23.6875 C-12.9425 25.1725 -12.9425 25.1725 -12.4375 26.6875 C-15.4075 27.3475 -18.3775 28.0075 -21.4375 28.6875 C-21.9325 26.7075 -21.9325 26.7075 -22.4375 24.6875 C-23.675 24.419375 -24.9125 24.15125 -26.1875 23.875 C-29.54033779 23.04868005 -31.84845936 22.06078726 -34.4375 19.6875 C-34.4375 21.3375 -34.4375 22.9875 -34.4375 24.6875 C-33.7775 24.6875 -33.1175 24.6875 -32.4375 24.6875 C-34.1875 28.5625 -34.1875 28.5625 -36.4375 29.6875 C-37.0975 27.3775 -37.7575 25.0675 -38.4375 22.6875 C-39.4275 22.6875 -40.4175 22.6875 -41.4375 22.6875 C-41.251875 23.30625 -41.06625 23.925 -40.875 24.5625 C-40.4375 26.6875 -40.4375 26.6875 -41.4375 28.6875 C-45.2438457 28.01579194 -48.78956816 26.96003436 -52.4375 25.6875 C-52.416875 24.883125 -52.39625 24.07875 -52.375 23.25 C-52.14116379 20.75395115 -52.14116379 20.75395115 -53.4375 19.6875 C-54.0975 19.6875 -54.7575 19.6875 -55.4375 19.6875 C-55.10937216 16.64580697 -54.81195531 15.07424597 -52.65234375 12.84375 C-51.90082031 12.2971875 -51.14929688 11.750625 -50.375 11.1875 C-49.56160156 10.59453125 -48.74820313 10.0015625 -47.91015625 9.390625 C-42.25948166 5.49853318 -36.82588796 2.21874806 -30.4375 -0.3125 C-29.73109375 -0.65925781 -29.0246875 -1.00601562 -28.296875 -1.36328125 C-19.75759137 -4.19804344 -8.12729473 -3.7402802 0 0 Z " fill="#FDEFC2" transform="translate(116.4375,28.3125)"/>
<path d="M0 0 C3.77800868 0.53971553 5.71576111 1.95434815 8 5 C7.64811789 11.93207755 1.6500035 16.42016116 -3 21 C-12.04075235 29 -12.04075235 29 -15 29 C-10.85235706 36.60884614 -5.39955548 46.4553819 2.71875 50.28125 C5.38907834 50.9256629 5.38907834 50.9256629 9 51 C8.6875 52.9375 8.6875 52.9375 8 55 C3.29296085 56.56901305 -1.43698486 57.05258265 -6.12109375 55.12890625 C-13.75923207 50.5877129 -18.97635146 44.17664077 -24 37 C-24.66 36.67 -25.32 36.34 -26 36 C-26.20496094 36.78246094 -26.40992188 37.56492188 -26.62109375 38.37109375 C-27.02521484 39.88896484 -27.02521484 39.88896484 -27.4375 41.4375 C-27.70433594 42.44683594 -27.97117187 43.45617187 -28.24609375 44.49609375 C-29 47 -29 47 -30 48 C-33.19031653 48.43112385 -34.62772151 48.23512326 -37.375 46.5 C-39.4671179 43.28135707 -39.15831877 41.55396054 -38.48828125 37.87890625 C-37.92659549 35.71753943 -37.07261155 33.9559387 -36 32 C-35.71125 30.9275 -35.4225 29.855 -35.125 28.75 C-34 25 -34 25 -32.125 21.5625 C-28.77390189 15.22564906 -27.58289234 7.93778343 -26 1 C-19.3125 1.796875 -19.3125 1.796875 -16.5 3.625 C-14.79299168 6.32776318 -14.72830016 7.81226075 -15.37109375 10.91796875 C-16.622109 15.05952855 -18.28378429 19.03274788 -20 23 C-19.67 23.33 -19.34 23.66 -19 24 C-11.19706155 17.89415455 -3.20619552 9.61858656 0 0 Z " fill="#F3BC15" transform="translate(50,41)"/>
<path d="M0 0 C1.60875 -0.04125 3.2175 -0.0825 4.875 -0.125 C6.23238281 -0.15980469 6.23238281 -0.15980469 7.6171875 -0.1953125 C10 0 10 0 12 2 C12.33 1.34 12.66 0.68 13 0 C14.32 0 15.64 0 17 0 C16.67 2.97 16.34 5.94 16 9 C17.65 9 19.3 9 21 9 C21.99 6.03 22.98 3.06 24 0 C31.75 -0.125 31.75 -0.125 34 1 C34.36637589 7.35051546 34.36637589 7.35051546 32.625 10.4375 C31 12 31 12 29 12 C29 12.66 29 13.32 29 14 C29.66 14.33 30.32 14.66 31 15 C28.84212046 16.47293463 26.67510667 17.92788822 24.5 19.375 C23.89929688 19.7875 23.29859375 20.2 22.6796875 20.625 C15.39748535 25.42815461 8.4756931 26.34875925 -0.125 26.3125 C-1.28322266 26.33666992 -1.28322266 26.33666992 -2.46484375 26.36132812 C-7.44062224 26.36556644 -10.62175818 25.57065341 -15 23 C-16.53732365 22.32337859 -18.07863771 21.65570132 -19.625 21 C-22.71524164 19.63466558 -25.52853483 18.36401016 -28 16 C-28 15.34 -28 14.68 -28 14 C-26.41693353 13.83081732 -24.83353281 13.66476064 -23.25 13.5 C-22.36828125 13.4071875 -21.4865625 13.314375 -20.578125 13.21875 C-17.11427643 12.9248477 -13.99609532 13.00063895 -10.5625 13.5625 C-6.743094 14.22090644 -6.743094 14.22090644 -2 13 C-1.34 8.71 -0.68 4.42 0 0 Z " fill="#F9EDBF" transform="translate(96,91)"/>
<path d="M0 0 C3 2 3 2 3.6875 5.125 C3.790625 6.07375 3.89375 7.0225 4 8 C7.465 7.505 7.465 7.505 11 7 C10.01 7.66 9.02 8.32 8 9 C8 10.65 8 12.3 8 14 C11.3 14.99 14.6 15.98 18 17 C18.372678 12.372678 18.372678 12.372678 17 10 C19.475 10.495 19.475 10.495 22 11 C22.66 12.98 23.32 14.96 24 17 C24.99 15.68 25.98 14.36 27 13 C26.34 13 25.68 13 25 13 C25 11.35 25 9.7 25 8 C25.495 8.268125 25.99 8.53625 26.5 8.8125 C29.36168999 10.17180274 32.28213277 11.1435496 35.29296875 12.12109375 C37 13 37 13 38 16 C40.97 15.67 43.94 15.34 47 15 C46.01 13.02 46.01 13.02 45 11 C47.88211302 10.03929566 49.69850044 9.89418117 52.6875 9.9375 C53.89986328 9.95103516 53.89986328 9.95103516 55.13671875 9.96484375 C56.05904297 9.98224609 56.05904297 9.98224609 57 10 C57.1875 12.375 57.1875 12.375 57 15 C56.01 15.66 55.02 16.32 54 17 C56.71549154 19.30671915 56.71549154 19.30671915 59.1875 18.625 C59.785625 18.41875 60.38375 18.2125 61 18 C60.76430821 21.77106862 59.48550362 23.83380785 57.1875 26.6875 C54.19593086 30.45916732 52.53571672 34.17611828 50.95703125 38.703125 C49.92859674 41.17136783 48.77363431 43.001797 47 45 C46.34 45 45.68 45 45 45 C45.39041439 39.14378413 47.34437654 34.84426843 50.0390625 29.6484375 C51.15276647 26.5789607 50.97982526 25.07644059 50 22 C48.87359395 20.03959519 48.87359395 20.03959519 47 19 C43.86945341 19.22544034 42.39771611 19.61468668 40.12109375 21.8203125 C39.56550781 22.58085938 39.00992188 23.34140625 38.4375 24.125 C37.84710938 24.93066406 37.25671875 25.73632812 36.6484375 26.56640625 C34.57211497 29.63168808 32.73839567 32.73181614 31 36 C30.67 35.34 30.34 34.68 30 34 C31.44308133 30.86580773 33.10057664 27.87773532 34.75 24.84765625 C36.37574784 22.00912398 36.37574784 22.00912398 35 19 C31.49705129 17.28432339 31.49705129 17.28432339 28 16 C27.82984375 16.53367187 27.6596875 17.06734375 27.484375 17.6171875 C25.8197504 22.7350227 23.95291043 27.72369279 21.90234375 32.69921875 C20.89165157 35.16874081 20.89165157 35.16874081 20 38.5 C19 41 19 41 16.875 42.375 C16.25625 42.58125 15.6375 42.7875 15 43 C15.39391614 37.09125787 17.39247164 32.78038423 20.13671875 27.55078125 C21.22911088 25.06809635 21.22911088 25.06809635 20.45703125 22.73046875 C18.51134856 20.41964454 16.93844096 20.30930958 14 20 C13.33613281 21.02480469 12.67226562 22.04960938 11.98828125 23.10546875 C11.09666829 24.46635169 10.20472354 25.82701729 9.3125 27.1875 C8.87744141 27.86103516 8.44238281 28.53457031 7.99414062 29.22851562 C5.31881634 33.29104509 2.56756599 36.68955588 -1 40 C-0.5823693 34.71001112 1.48139734 30.9031572 4.0390625 26.3671875 C5.16281733 24.08546588 5.16281733 24.08546588 4.87109375 21.8046875 C3.34365922 18.64022673 0.13748516 18.1409037 -3 17 C-3.33 18.32 -3.66 19.64 -4 21 C-4.8125 18.9375 -4.8125 18.9375 -5 16 C-3.91796875 14.28515625 -3.91796875 14.28515625 -2.5 12.5 C-0.33117914 9.7310553 -0.33117914 9.7310553 0.1875 6.25 C-1.50097133 3.05079116 -3.72409863 2.32430055 -7 1 C-7.0721875 1.69480469 -7.144375 2.38960937 -7.21875 3.10546875 C-8.21570152 6.79917411 -10.16340136 9.36501169 -12.5 12.3125 C-12.9419873 12.8799292 -13.38397461 13.4473584 -13.83935547 14.03198242 C-17.74364114 18.92241643 -22.1102548 23.09056604 -27 27 C-28.23593891 23.29218328 -27.5678132 22.32489747 -26.0625 18.8125 C-25.68222656 17.91144531 -25.30195313 17.01039062 -24.91015625 16.08203125 C-24.60980469 15.39496094 -24.30945312 14.70789063 -24 14 C-23.401875 14.226875 -22.80375 14.45375 -22.1875 14.6875 C-19.99320974 15.25077633 -19.99320974 15.25077633 -18.43359375 13.94140625 C-15.89989612 10.51021354 -14.35584914 6.58286811 -12.59765625 2.71484375 C-9.18511224 -3.08397798 -5.86801462 -2.1338235 0 0 Z " fill="#4B2B11" transform="translate(57,40)"/>
<path d="M0 0 C1.29744141 -0.04350586 1.29744141 -0.04350586 2.62109375 -0.08789062 C11.01638014 -0.16970376 17.40328725 2.53231083 24.125 7.5 C27.46775508 9.94198151 30.84542844 12.28385769 34.30419922 14.55883789 C42.17776242 19.79918956 48.95895941 25.80158542 53.375 34.3125 C53.375 35.6325 53.375 36.9525 53.375 38.3125 C52.715 38.3125 52.055 38.3125 51.375 38.3125 C51.189375 39.42625 51.189375 39.42625 51 40.5625 C50.42013299 43.11391485 49.63791261 45.0392573 48.375 47.3125 C47.385 47.3125 46.395 47.3125 45.375 47.3125 C45.375 48.9625 45.375 50.6125 45.375 52.3125 C43.725 52.6425 42.075 52.9725 40.375 53.3125 C40.22804687 52.69503906 40.08109375 52.07757813 39.9296875 51.44140625 C36.7463947 39.42173169 29.49878642 30.17950766 18.75390625 23.7421875 C16.375 22.3125 16.375 22.3125 15.03125 20.72265625 C12.39642353 18.47932522 9.19586885 18.28450175 5.875 17.75 C-1.25 16.5625 -1.25 16.5625 -4.625 14.3125 C-4.625 13.6525 -4.625 12.9925 -4.625 12.3125 C6.74019407 13.1867457 16.70359584 17.43322696 26.375 23.3125 C27.37144531 23.88484375 28.36789063 24.4571875 29.39453125 25.046875 C33.01375569 27.79805478 34.90345175 30.69416355 37.1875 34.5625 C38.56117114 36.82872014 39.95416122 39.07505282 41.375 41.3125 C41.705 41.3125 42.035 41.3125 42.375 41.3125 C42.375 35.41048035 39.60230578 32.17417091 35.71484375 28.05859375 C34.22085555 26.11161788 33.83379755 24.70108518 33.375 22.3125 C32.88 20.8275 32.88 20.8275 32.375 19.3125 C30.12264286 18.23232066 30.12264286 18.23232066 27.375 17.3125 C25.3091217 16.34048125 23.24684822 15.36077814 21.1875 14.375 C15.68635676 11.81239455 10.24773551 9.82376828 4.375 8.3125 C6.025 8.9725 7.675 9.6325 9.375 10.3125 C9.375 10.6425 9.375 10.9725 9.375 11.3125 C2.115 11.3125 -5.145 11.3125 -12.625 11.3125 C-10.625 9.3125 -10.625 9.3125 -7.8046875 9.1171875 C-6.71414062 9.14039063 -5.62359375 9.16359375 -4.5 9.1875 C-3.40429688 9.20554687 -2.30859375 9.22359375 -1.1796875 9.2421875 C-0.33664063 9.26539063 0.50640625 9.28859375 1.375 9.3125 C1.375 8.6525 1.375 7.9925 1.375 7.3125 C-0.72978604 7.42659682 -2.83384577 7.55415361 -4.9375 7.6875 C-6.69513672 7.79191406 -6.69513672 7.79191406 -8.48828125 7.8984375 C-11.78199887 8.09863747 -11.78199887 8.09863747 -14.625 10.3125 C-16.6146995 10.70263716 -18.61519869 11.04452649 -20.625 11.3125 C-19.9375 8.4375 -19.9375 8.4375 -18.625 5.3125 C-16.0625 4.0625 -16.0625 4.0625 -13.625 3.3125 C-13.295 2.6525 -12.965 1.9925 -12.625 1.3125 C-8.41403348 -0.09115551 -4.41224127 0.04802875 0 0 Z M-5.625 2.3125 C-5.625 2.6425 -5.625 2.9725 -5.625 3.3125 C-4.80092651 3.44096313 -4.80092651 3.44096313 -3.96020508 3.57202148 C-1.45246392 3.96358339 1.05501877 4.3567772 3.5625 4.75 C4.85897461 4.95206055 4.85897461 4.95206055 6.18164062 5.15820312 C10.26431675 5.79954305 14.33169077 6.45026221 18.375 7.3125 C11.41394383 1.18677057 3.11088846 2.07603986 -5.625 2.3125 Z " fill="#BC8E22" transform="translate(100.625,7.6875)"/>
<path d="M0 0 C0.495 0.99 0.495 0.99 1 2 C0.00390625 4.13671875 0.00390625 4.13671875 -1.4375 6.6875 C-3.6672965 11.00383792 -4.88851715 14.06379359 -4 19 C-1.94355125 21.8942612 -0.6751021 22.81588125 2.75 23.75 C3.4925 23.8325 4.235 23.915 5 24 C2 26 2 26 -1 26 C-1.23783203 27.58941406 -1.23783203 27.58941406 -1.48046875 29.2109375 C-1.7149655 30.59915823 -1.95070767 31.98716899 -2.1875 33.375 C-2.28869141 34.07367188 -2.38988281 34.77234375 -2.49414062 35.4921875 C-2.85546875 37.5234375 -2.85546875 37.5234375 -4 41 C-8.14843399 43.60293897 -11.30904874 42.85290023 -16 42 C-18.00003433 42 -20.00027459 42.00000483 -22 42.03515625 C-22.66 42.04417969 -23.32 42.05320313 -24 42.0625 C-24.66 42.07410156 -25.32 42.08570313 -26 42.09765625 C-28 42 -28 42 -32 41 C-32 36.71 -32 32.42 -32 28 C-30.35 28.33 -28.7 28.66 -27 29 C-26.79375 28.278125 -26.5875 27.55625 -26.375 26.8125 C-24.54751837 23.0744694 -22.29561194 21.50753083 -19 19 C-18.34 19.66 -17.68 20.32 -17 21 C-14.42938689 21.64767793 -14.42938689 21.64767793 -12 22 C-11.89171875 21.28714844 -11.7834375 20.57429688 -11.671875 19.83984375 C-9.90280088 12.36241998 -5.14186731 5.59556148 0 0 Z " fill="#4E2E14" transform="translate(98,63)"/>
<path d="M0 0 C3.50894835 1.12286347 4.61240728 2.52397556 6.7578125 5.43359375 C9.09050269 8.10619023 11.98980827 9.40166696 15.125 11 C14.41047412 15.76350585 13.32965156 20.34201396 12.125 25 C12.785 25 13.445 25 14.125 25 C14.393125 24.443125 14.66125 23.88625 14.9375 23.3125 C16.22622647 20.80287477 17.65426478 18.40665764 19.125 16 C20.125 19 20.125 19 19.12109375 21.26171875 C14.9454112 27.7607134 14.9454112 27.7607134 11.125 28.875 C7.08253533 27.6959478 4.9607308 26.1058004 2.125 23 C2.125 21.02 2.125 19.04 2.125 17 C-0.845 20.63 -3.815 24.26 -6.875 28 C-13.46036585 26.68292683 -13.46036585 26.68292683 -15.875 24 C-17.03566034 17.55188702 -14.33829717 13.19022736 -10.875 8 C-5.03670213 0 -5.03670213 0 0 0 Z " fill="#F2BB15" transform="translate(178.875,58)"/>
<path d="M0 0 C2.5654594 2.5654594 2.54046087 4.47686668 3 8 C-4.18099994 14.28337494 -16.40658226 21 -26 21 C-26 21.66 -26 22.32 -26 23 C-27.78857422 23.09087891 -27.78857422 23.09087891 -29.61328125 23.18359375 C-31.17969925 23.26801149 -32.74610488 23.35265887 -34.3125 23.4375 C-35.49102539 23.49647461 -35.49102539 23.49647461 -36.69335938 23.55664062 C-37.45068359 23.59853516 -38.20800781 23.64042969 -38.98828125 23.68359375 C-40.03302612 23.73858032 -40.03302612 23.73858032 -41.09887695 23.79467773 C-43.2216572 23.95581153 -43.2216572 23.95581153 -46 25 C-46.33 24.01 -46.66 23.02 -47 22 C-49.99479856 21.07709789 -49.99479856 21.07709789 -53.5 20.5 C-57.09375 19.84375 -57.09375 19.84375 -60 19 C-60.33 18.01 -60.66 17.02 -61 16 C-57.7 16 -54.4 16 -51 16 C-51.66 15.34 -52.32 14.68 -53 14 C-53 13.67 -53 13.34 -53 13 C-54.98 12.34 -56.96 11.68 -59 11 C-58.34 10.67 -57.68 10.34 -57 10 C-57.33 9.01 -57.66 8.02 -58 7 C-57.443125 7.28875 -56.88625 7.5775 -56.3125 7.875 C-55.549375 8.24625 -54.78625 8.6175 -54 9 C-53.31035156 9.34933594 -52.62070313 9.69867188 -51.91015625 10.05859375 C-47.93317819 11.34510611 -44.27590583 11.2522514 -40.125 11.1875 C-39.34769531 11.18685547 -38.57039063 11.18621094 -37.76953125 11.18554688 C-34.10928986 11.15786438 -30.68860119 10.9546776 -27.0546875 10.42578125 C-24 10 -24 10 -22 11 C-19.765028 10.45783893 -19.765028 10.45783893 -17.375 9.5625 C-16.55773437 9.27503906 -15.74046875 8.98757812 -14.8984375 8.69140625 C-14.27195313 8.46324219 -13.64546875 8.23507813 -13 8 C-12.34 8.66 -11.68 9.32 -11 10 C-11 9.34 -11 8.68 -11 8 C-9.35546875 6.5625 -9.35546875 6.5625 -7.1875 5 C-6.47980469 4.484375 -5.77210938 3.96875 -5.04296875 3.4375 C-3.37919271 2.26681246 -1.69269789 1.12846526 0 0 Z M-37 16 C-37 16.33 -37 16.66 -37 17 C-34.36 17 -31.72 17 -29 17 C-29 16.67 -29 16.34 -29 16 C-31.64 16 -34.28 16 -37 16 Z " fill="#B78C26" transform="translate(136,105)"/>
<path d="M0 0 C1.62463842 -0.05395478 3.24978541 -0.09277195 4.875 -0.125 C5.77992187 -0.14820312 6.68484375 -0.17140625 7.6171875 -0.1953125 C10 0 10 0 12 2 C12.33 1.34 12.66 0.68 13 0 C14.32 0 15.64 0 17 0 C16.67 2.97 16.34 5.94 16 9 C17.65 9 19.3 9 21 9 C21.99 6.03 22.98 3.06 24 0 C31.75 -0.125 31.75 -0.125 34 1 C34.36637589 7.35051546 34.36637589 7.35051546 32.625 10.4375 C31 12 31 12 29 12 C29 12.66 29 13.32 29 14 C25.1463114 14.19832847 21.29204822 14.38171343 17.4375 14.5625 C16.35146484 14.61857422 15.26542969 14.67464844 14.14648438 14.73242188 C8.60113681 14.98524927 3.4577939 15.05710499 -2 14 C-1.03644647 4.58997722 -1.03644647 4.58997722 0 0 Z " fill="#50311B" transform="translate(96,91)"/>
<path d="M0 0 C3.67443332 1.22481111 4.88344972 2.82517458 7 6 C5.125 10.75 5.125 10.75 4 13 C3.9175 13.598125 3.835 14.19625 3.75 14.8125 C2.64718877 18.02903276 0.44295848 19.66808508 -2 22 C-3.7140168 23.96484852 -5.35363611 25.97732437 -7 28 C-10.34373475 27.44271087 -13.03312999 26.64826111 -16 25 C-16.53625 25.66 -17.0725 26.32 -17.625 27 C-20 29 -20 29 -23.25 29.25 C-24.1575 29.1675 -25.065 29.085 -26 29 C-26 28.34 -26 27.68 -26 27 C-25.34 27 -24.68 27 -24 27 C-24 26.34 -24 25.68 -24 25 C-23.34 25 -22.68 25 -22 25 C-22 25.66 -22 26.32 -22 27 C-18.58938849 24.14246062 -16.83939924 22.12018031 -15.625 17.8125 C-13.59688076 10.89371606 -8.1562586 0 0 0 Z " fill="#F3BB15" transform="translate(124,58)"/>
<path d="M0 0 C0.495 0.268125 0.99 0.53625 1.5 0.8125 C4.36168999 2.17180274 7.28213277 3.1435496 10.29296875 4.12109375 C12 5 12 5 13 8 C17.455 7.505 17.455 7.505 22 7 C21.34 5.68 20.68 4.36 20 3 C22.88211302 2.03929566 24.69850044 1.89418117 27.6875 1.9375 C28.89986328 1.95103516 28.89986328 1.95103516 30.13671875 1.96484375 C31.05904297 1.98224609 31.05904297 1.98224609 32 2 C32.1875 4.375 32.1875 4.375 32 7 C31.01 7.66 30.02 8.32 29 9 C31.71549154 11.30671915 31.71549154 11.30671915 34.1875 10.625 C34.785625 10.41875 35.38375 10.2125 36 10 C35.76430821 13.77106862 34.48550362 15.83380785 32.1875 18.6875 C29.19593086 22.45916732 27.53571672 26.17611828 25.95703125 30.703125 C24.92859674 33.17136783 23.77363431 35.001797 22 37 C21.34 37 20.68 37 20 37 C20.39041439 31.14378413 22.34437654 26.84426843 25.0390625 21.6484375 C26.15276647 18.5789607 25.97982526 17.07644059 25 14 C23.87359395 12.03959519 23.87359395 12.03959519 22 11 C18.86945341 11.22544034 17.39771611 11.61468668 15.12109375 13.8203125 C14.56550781 14.58085938 14.00992188 15.34140625 13.4375 16.125 C12.84710938 16.93066406 12.25671875 17.73632812 11.6484375 18.56640625 C9.57211497 21.63168808 7.73839567 24.73181614 6 28 C5.67 27.34 5.34 26.68 5 26 C6.44308133 22.86580773 8.10057664 19.87773532 9.75 16.84765625 C11.37574784 14.00912398 11.37574784 14.00912398 10 11 C8.13977928 9.76722873 8.13977928 9.76722873 5.9375 8.8125 C4.83728516 8.29623047 4.83728516 8.29623047 3.71484375 7.76953125 C3.14894531 7.51558594 2.58304687 7.26164062 2 7 C2 6.34 2 5.68 2 5 C1.34 5 0.68 5 0 5 C0 3.35 0 1.7 0 0 Z " fill="#4A2A10" transform="translate(82,48)"/>
<path d="M0 0 C11.36519407 0.8742457 21.32859584 5.12072696 31 11 C31.99644531 11.57234375 32.99289063 12.1446875 34.01953125 12.734375 C37.63875569 15.48555478 39.52845175 18.38166355 41.8125 22.25 C43.18617114 24.51622014 44.57916122 26.76255282 46 29 C46.33 29 46.66 29 47 29 C47 24.48680324 45.04963407 20.9528657 43 17 C46 17 46 17 48.4375 19.1875 C49.283125 20.115625 50.12875 21.04375 51 22 C51.78375 22.804375 52.5675 23.60875 53.375 24.4375 C55 27 55 27 54.8125 30.1875 C54 33 54 33 53 35 C52.01 35 51.02 35 50 35 C50 36.65 50 38.3 50 40 C47.525 40.495 47.525 40.495 45 41 C44.85304687 40.38253906 44.70609375 39.76507813 44.5546875 39.12890625 C41.3713947 27.10923169 34.12378642 17.86700766 23.37890625 11.4296875 C21 10 21 10 19.65625 8.41015625 C17.02142353 6.16682522 13.82086885 5.97200175 10.5 5.4375 C3.375 4.25 3.375 4.25 0 2 C0 1.34 0 0.68 0 0 Z " fill="#9B792A" transform="translate(96,20)"/>
<path d="M0 0 C3.375 1.875 3.375 1.875 4.4375 4.3125 C4.36798637 7.1625587 3.72370758 8.40236943 2.375 10.875 C1.99209538 12.86610401 1.64895385 14.86600513 1.375 16.875 C2.035 16.875 2.695 16.875 3.375 16.875 C3.643125 16.318125 3.91125 15.76125 4.1875 15.1875 C5.47622647 12.67787477 6.90426478 10.28165764 8.375 7.875 C9.375 10.875 9.375 10.875 8.37109375 13.13671875 C4.1954112 19.6357134 4.1954112 19.6357134 0.375 20.75 C-3.66746467 19.5709478 -5.7892692 17.9808004 -8.625 14.875 C-9 11.5625 -9 11.5625 -8.625 8.875 C-9.388125 9.638125 -10.15125 10.40125 -10.9375 11.1875 C-11.824375 12.074375 -12.71125 12.96125 -13.625 13.875 C-14.181875 14.473125 -14.73875 15.07125 -15.3125 15.6875 C-16.625 16.875 -16.625 16.875 -18.625 16.875 C-16.86214661 9.82358643 -12.68004773 3.89982584 -6.625 -0.125 C-3.625 -1.125 -3.625 -1.125 0 0 Z " fill="#EEB815" transform="translate(189.625,66.125)"/>
<path d="M0 0 C0.03867188 1.04800781 0.03867188 1.04800781 0.078125 2.1171875 C0.13484375 3.02726562 0.1915625 3.93734375 0.25 4.875 C0.29640625 5.77992187 0.3428125 6.68484375 0.390625 7.6171875 C0.74813491 10.14862248 0.74813491 10.14862248 2.92578125 11.22265625 C3.95251953 11.60744141 3.95251953 11.60744141 5 12 C5.639375 12.515625 6.27875 13.03125 6.9375 13.5625 C9.29598047 15.20628942 11.17748429 15.60798393 14 16 C14 17.32 14 18.64 14 20 C16.31 20.66 18.62 21.32 21 22 C21 22.99 21 23.98 21 25 C16.17019977 24.32607439 12.18179801 23.15506954 7.875 20.875 C5.89176146 19.78855727 5.89176146 19.78855727 3 20 C-1.02677473 18.72838693 -3.93226801 16.90190864 -7 14 C-8.3125 11.25 -8.3125 11.25 -9 9 C-9.66 9 -10.32 9 -11 9 C-11.33 8.01 -11.66 7.02 -12 6 C-11.67 5.34 -11.34 4.68 -11 4 C-10.34 4 -9.68 4 -9 4 C-9 4.66 -9 5.32 -9 6 C-8.34 5.67 -7.68 5.34 -7 5 C-6.67 4.01 -6.34 3.02 -6 2 C-3.85412616 0.684787 -2.52986895 0 0 0 Z " fill="#C59C32" transform="translate(64,96)"/>
<path d="M0 0 C11.76761828 -0.45067474 21.15379966 1.43586644 31 8 C31.12375 8.598125 31.2475 9.19625 31.375 9.8125 C32.63359286 14.21757499 36.76584531 16.82554957 40.25 19.5625 C43.75315315 22.66756757 43.75315315 22.66756757 44 26 C43.34 26 42.68 26 42 26 C42.350625 26.598125 42.70125 27.19625 43.0625 27.8125 C44 30 44 30 43 33 C42.52949219 32.18015625 42.05898437 31.3603125 41.57421875 30.515625 C40.95160156 29.43796875 40.32898438 28.3603125 39.6875 27.25 C38.76517578 25.64898437 38.76517578 25.64898437 37.82421875 24.015625 C36.1106209 21.06026739 36.1106209 21.06026739 34.26953125 18.734375 C33 17 33 17 33 15 C32.34 14.773125 31.68 14.54625 31 14.3125 C28.51188581 13.22395004 26.50904044 12.09337628 24.25 10.625 C16.62414719 5.77866363 8.7408324 3.15661659 0 1 C0 0.67 0 0.34 0 0 Z " fill="#BF9837" transform="translate(100,20)"/>
<path d="M0 0 C0.66 0 1.32 0 2 0 C2 0.99 2 1.98 2 3 C2.99 3 3.98 3 5 3 C7.69290446 3.57668317 10.3349698 4.30097568 13 5 C11.12050295 8.57104439 9.82946843 10.54744301 6 12 C5.34 10.35 4.68 8.7 4 7 C0.47611044 8.55706748 -1.94264723 9.94264723 -4.6875 12.6875 C-5.450625 13.450625 -6.21375 14.21375 -7 15 C-7.99 15 -8.98 15 -10 15 C-12.05962618 15.73498757 -14.05100029 16.58423308 -16.0625 17.44140625 C-18 18 -18 18 -21 17 C-20.24074219 16.45730469 -19.48148437 15.91460937 -18.69921875 15.35546875 C-17.70535156 14.64003906 -16.71148437 13.92460938 -15.6875 13.1875 C-14.70136719 12.47980469 -13.71523437 11.77210937 -12.69921875 11.04296875 C-8.72907168 8.04326024 -8.72907168 8.04326024 -6 4 C-4.33333333 3.33333333 -2.66666667 2.66666667 -1 2 C-0.67 1.34 -0.34 0.68 0 0 Z " fill="#B58922" transform="translate(132,99)"/>
<path d="M0 0 C-1.56415727 3.12831454 -4.17386497 3.41662452 -7.375 4.625 C-8.53773437 5.07101563 -9.70046875 5.51703125 -10.8984375 5.9765625 C-14 7 -14 7 -17 7 C-17 7.66 -17 8.32 -17 9 C-18.78857422 9.09087891 -18.78857422 9.09087891 -20.61328125 9.18359375 C-22.17969925 9.26801149 -23.74610488 9.35265887 -25.3125 9.4375 C-26.09818359 9.47681641 -26.88386719 9.51613281 -27.69335938 9.55664062 C-28.45068359 9.59853516 -29.20800781 9.64042969 -29.98828125 9.68359375 C-30.68477783 9.72025146 -31.38127441 9.75690918 -32.09887695 9.79467773 C-34.2216572 9.95581153 -34.2216572 9.95581153 -37 11 C-37.33 10.01 -37.66 9.02 -38 8 C-40.99479856 7.07709789 -40.99479856 7.07709789 -44.5 6.5 C-48.09375 5.84375 -48.09375 5.84375 -51 5 C-51.33 4.01 -51.66 3.02 -52 2 C-51.175 2.144375 -50.35 2.28875 -49.5 2.4375 C-38.12803602 4.26513707 -27.45307516 4.2405652 -16 3 C-16 3.66 -16 4.32 -16 5 C-18.97 5.66 -21.94 6.32 -25 7 C-21.04 6.34 -17.08 5.68 -13 5 C-13 4.34 -13 3.68 -13 3 C-11.40084119 2.30093058 -9.79544955 1.61610532 -8.1875 0.9375 C-7.29417969 0.55464844 -6.40085938 0.17179687 -5.48046875 -0.22265625 C-3 -1 -3 -1 0 0 Z " fill="#EEB31D" transform="translate(127,119)"/>
<path d="M0 0 C1.32 0.66 2.64 1.32 4 2 C2.68 2 1.36 2 0 2 C0 2.66 0 3.32 0 4 C0.66 4.33 1.32 4.66 2 5 C2 5.66 2 6.32 2 7 C-0.01840087 8.356581 -2.02426366 9.59641875 -4.125 10.8125 C-9.64140316 14.09775833 -14.45065137 17.45065137 -19 22 C-19 20.68 -19 19.36 -19 18 C-19.99 17.67 -20.98 17.34 -22 17 C-20.50632911 12.27004219 -20.50632911 12.27004219 -18.125 11 C-17.42375 10.67 -16.7225 10.34 -16 10 C-13.77183014 7.46557594 -13.77183014 7.46557594 -12 5 C-11.34 5.33 -10.68 5.66 -10 6 C-10 6.66 -10 7.32 -10 8 C-9.52949219 7.59007812 -9.05898437 7.18015625 -8.57421875 6.7578125 C-7.95160156 6.21898437 -7.32898438 5.68015625 -6.6875 5.125 C-5.76517578 4.32449219 -5.76517578 4.32449219 -4.82421875 3.5078125 C-3 2 -3 2 0 0 Z " fill="#BA8F28" transform="translate(79,24)"/>
<path d="M0 0 C1.9375 1.125 1.9375 1.125 3 3 C2.92457105 6.54516066 2.36986838 8.4794445 0.3125 11.375 C-2.68200318 13.47924548 -4.41506602 13.54553343 -8 13 C-10.32749345 9.50875983 -10.50299316 8.10777749 -10 4 C-7.21052575 -0.0769239 -4.82207542 -0.71818145 0 0 Z " fill="#EBE7E5" transform="translate(91,91)"/>
<path d="M0 0 C7.75 -0.125 7.75 -0.125 10 1 C10.4206933 5.29107165 10.45543836 7.35134537 7.9375 10.9375 C4.35134537 13.45543836 2.29107165 13.4206933 -2 13 C-1.85915204 11.20793453 -1.71216299 9.41635083 -1.5625 7.625 C-1.48128906 6.62726563 -1.40007812 5.62953125 -1.31640625 4.6015625 C-1 2 -1 2 0 0 Z " fill="#DED8D4" transform="translate(120,91)"/>
<path d="M0 0 C0.556875 0.28875 1.11375 0.5775 1.6875 0.875 C2.8321875 1.431875 2.8321875 1.431875 4 2 C4.68964844 2.34933594 5.37929687 2.69867188 6.08984375 3.05859375 C10.06682181 4.34510611 13.72409417 4.2522514 17.875 4.1875 C18.65230469 4.18685547 19.42960937 4.18621094 20.23046875 4.18554688 C23.89071014 4.15786438 27.31139881 3.9546776 30.9453125 3.42578125 C34 3 34 3 36 4 C38.234972 3.45783893 38.234972 3.45783893 40.625 2.5625 C41.44226563 2.27503906 42.25953125 1.98757812 43.1015625 1.69140625 C43.72804687 1.46324219 44.35453125 1.23507813 45 1 C40.66741808 5.81551303 34.88461324 7.75316677 28.47949219 8.16015625 C23.01328777 8.27584312 17.55645777 8.16112119 12.09375 7.94995117 C9.80424975 7.90221304 9.80424975 7.90221304 7 9 C6.34 8.34 5.68 7.68 5 7 C5 6.67 5 6.34 5 6 C3.02 5.34 1.04 4.68 -1 4 C-0.34 3.67 0.32 3.34 1 3 C0.67 2.01 0.34 1.02 0 0 Z " fill="#D6A11F" transform="translate(78,112)"/>
<path d="M0 0 C3.3 0 6.6 0 10 0 C11.125 4.75 11.125 4.75 10 7 C9.960008 8.99960012 9.95653201 11.00047242 10 13 C8.68 13 7.36 13 6 13 C6 11.35 6 9.7 6 8 C4.68 8 3.36 8 2 8 C2 9.65 2 11.3 2 13 C0.68 13 -0.64 13 -2 13 C-1.34 8.71 -0.68 4.42 0 0 Z " fill="#D6CFCA" transform="translate(96,91)"/>
<path d="M0 0 C2.475 0.495 2.475 0.495 5 1 C7.23167185 0.63143136 7.23167185 0.63143136 9 0 C9.33 1.65 9.66 3.3 10 5 C10.66 3.35 11.32 1.7 12 0 C12.99 0 13.98 0 15 0 C14.33501617 4.38889325 12.81242323 7.9811485 11 12 C9.68 12 8.36 12 7 12 C6.67 11.01 6.34 10.02 6 9 C5.67 9.99 5.34 10.98 5 12 C3.68 12 2.36 12 1 12 C0.67 8.04 0.34 4.08 0 0 Z " fill="#DED9D5" transform="translate(66,91)"/>
<path d="M0 0 C13.77801677 1.05984744 25.83198917 7.15220861 37 15 C36.67 15.99 36.34 16.98 36 18 C35.01 17.67 34.02 17.34 33 17 C33 16.34 33 15.68 33 15 C32.34 15 31.68 15 31 15 C30.67 15.66 30.34 16.32 30 17 C28.700625 15.9171875 28.700625 15.9171875 27.375 14.8125 C26.81425781 14.35746094 26.25351563 13.90242188 25.67578125 13.43359375 C24 12 24 12 21.5625 9.375 C17.83632448 6.17970433 12.99055235 5.74313833 8.29321289 4.98779297 C4.87968203 4.43592802 2.93383601 3.95589067 0 2 C0 1.34 0 0.68 0 0 Z " fill="#BB8D21" transform="translate(96,20)"/>
<path d="M0 0 C9.68188406 2.2123224 24.89939993 5.93259628 30.7265625 14.5546875 C31.14679688 15.36164062 31.56703125 16.16859375 32 17 C32.391875 17.70125 32.78375 18.4025 33.1875 19.125 C34 21 34 21 34 24 C32.62437146 22.71034824 31.29233607 21.37310707 30 20 C30 19.34 30 18.68 30 18 C29.01 17.67 28.02 17.34 27 17 C27 15.68 27 14.36 27 13 C24.26017466 11.62391655 21.52160316 10.24852811 18.75 8.9375 C18.04359375 8.59589844 17.3371875 8.25429688 16.609375 7.90234375 C9.2102019 5.34364766 1.222574 5.87745606 -6.5 5.9375 C-8.16289063 5.94426758 -8.16289063 5.94426758 -9.859375 5.95117188 C-12.57297399 5.96286842 -15.28645761 5.97925914 -18 6 C-15.64641749 3.64641749 -15.07031606 3.72128096 -11.8671875 3.5859375 C-11.06152344 3.54726563 -10.25585938 3.50859375 -9.42578125 3.46875 C-8.58402344 3.4378125 -7.74226563 3.406875 -6.875 3.375 C-5.60076172 3.31699219 -5.60076172 3.31699219 -4.30078125 3.2578125 C-2.20088316 3.16343506 -0.10047109 3.08062414 2 3 C1.34 2.01 0.68 1.02 0 0 Z " fill="#EDB725" transform="translate(104,15)"/>
<path d="M0 0 C2.875 0.1875 2.875 0.1875 6 1 C7.1875 3.5 7.1875 3.5 8 6 C8.99 6.33 9.98 6.66 11 7 C11.309375 7.62261719 11.61875 8.24523437 11.9375 8.88671875 C13.23642363 11.47023964 14.54938562 12.32140927 17 13.8125 C17.70125 14.25207031 18.4025 14.69164063 19.125 15.14453125 C19.74375 15.42683594 20.3625 15.70914063 21 16 C21.66 15.67 22.32 15.34 23 15 C26 16.75 26 16.75 29 19 C29 20.32 29 21.64 29 23 C27.02 22.67 25.04 22.34 23 22 C23 21.34 23 20.68 23 20 C22.113125 19.7525 21.22625 19.505 20.3125 19.25 C12.74230115 16.39332119 9.31172621 10.51107935 5 4 C4.01 4.495 4.01 4.495 3 5 C2.01 4.34 1.02 3.68 0 3 C0 2.01 0 1.02 0 0 Z " fill="#F5B916" transform="translate(45,99)"/>
<path d="M0 0 C2.49361571 1.20381448 4.68143083 2.45428722 7 4 C7.66 3.34 8.32 2.68 9 2 C9.6496875 2.7115625 9.6496875 2.7115625 10.3125 3.4375 C12.02309613 5.23686957 12.02309613 5.23686957 15 6 C14.67 5.01 14.34 4.02 14 3 C17.375 3.25 17.375 3.25 21 4 C22.4375 6.0625 22.4375 6.0625 23 8 C22.67 8.33 22.34 8.66 22 9 C24.31 9.66 26.62 10.32 29 11 C29 11.99 29 12.98 29 14 C24.17019977 13.32607439 20.18179801 12.15506954 15.875 9.875 C13.89176146 8.78855727 13.89176146 8.78855727 11 9 C6.98030647 7.73062309 4.10388099 5.84522424 1 3 C0.67 2.01 0.34 1.02 0 0 Z " fill="#BB9334" transform="translate(56,107)"/>
<path d="M0 0 C2.72869407 0.03287583 5.2966618 0.56397771 8 1 C3.75259665 4.45101522 -0.61105071 7.73279209 -5 11 C-5.33 10.01 -5.66 9.02 -6 8 C-6.721875 8.721875 -7.44375 9.44375 -8.1875 10.1875 C-10.79166667 12.79166667 -13.39583333 15.39583333 -16 18 C-17.32 17.34 -18.64 16.68 -20 16 C-19.01 15.34 -18.02 14.68 -17 14 C-15.76872162 12.86496889 -15.76872162 12.86496889 -14.625 10.4375 C-14.08875 9.633125 -13.5525 8.82875 -13 8 C-12.01 8 -11.02 8 -10 8 C-7.95947255 6.7614897 -7.95947255 6.7614897 -5.9375 5.125 C-5.24527344 4.59132813 -4.55304688 4.05765625 -3.83984375 3.5078125 C-1.91573474 1.98153402 -1.91573474 1.98153402 0 0 Z " fill="#D4A42E" transform="translate(73,22)"/>
<path d="M0 0 C0.66 0 1.32 0 2 0 C2.30265747 6.05314943 1.30935062 9.15384199 -2.76049805 13.77832031 C-6.51704569 17.8051719 -10.08412001 21.36264833 -15 24 C-14.27991594 19.39146203 -12.68704061 15.32762591 -11 11 C-10.401875 11.226875 -9.80375 11.45375 -9.1875 11.6875 C-6.97401272 12.25971967 -6.97401272 12.25971967 -5.38671875 10.85546875 C-3.81986251 8.75897097 -2.82611995 6.72421642 -1.8125 4.3125 C-1.29623047 3.10013672 -1.29623047 3.10013672 -0.76953125 1.86328125 C-0.51558594 1.24839844 -0.26164062 0.63351563 0 0 Z " fill="#503010" transform="translate(44,43)"/>
<path d="M0 0 C1.65 0 3.3 0 5 0 C3.68 0.33 2.36 0.66 1 1 C1 1.66 1 2.32 1 3 C1.66 3.33 2.32 3.66 3 4 C2.67 4.66 2.34 5.32 2 6 C1.34 6 0.68 6 0 6 C-0.1546875 6.804375 -0.1546875 6.804375 -0.3125 7.625 C-1 10 -1 10 -2.375 12.625 C-5.67282371 19.47432616 -7.30184246 26.45989851 -8 34 C-9.67244437 30.98960013 -10.66943211 28.43982237 -11 25 C-10.23215924 22.47420801 -9.41755211 20.217096 -8.375 17.8125 C-8.10155762 17.15628662 -7.82811523 16.50007324 -7.54638672 15.82397461 C-5.26798632 10.43140851 -2.74878883 5.16918254 0 0 Z " fill="#553411" transform="translate(156,67)"/>
<path d="M0 0 C2.97 0.495 2.97 0.495 6 1 C5.67 1.53625 5.34 2.0725 5 2.625 C3.75908477 5.57217367 3.79321834 7.82934784 4 11 C4.33 11.66 4.66 12.32 5 13 C8.34252724 13.07427838 10.8035914 13.06546953 14 12 C14.33 12.66 14.66 13.32 15 14 C11.20546564 16.58028336 8.36096226 15.77874326 4 15 C1.99996567 15 -0.00027459 15.00000483 -2 15.03515625 C-2.66 15.04417969 -3.32 15.05320312 -4 15.0625 C-4.66 15.07410156 -5.32 15.08570312 -6 15.09765625 C-8 15 -8 15 -12 14 C-12 11.03 -12 8.06 -12 5 C-11.67 5 -11.34 5 -11 5 C-11 7.64 -11 10.28 -11 13 C-9.68 13 -8.36 13 -7 13 C-6.67 11.35 -6.34 9.7 -6 8 C-5.67 8 -5.34 8 -5 8 C-5 9.65 -5 11.3 -5 13 C-3.68 13 -2.36 13 -1 13 C-0.79503906 12.38511719 -0.59007813 11.77023438 -0.37890625 11.13671875 C0.74739583 7.7578125 1.87369792 4.37890625 3 1 C2.01 0.67 1.02 0.34 0 0 Z " fill="#553723" transform="translate(78,90)"/>
<path d="M0 0 C0.66 0 1.32 0 2 0 C2.66 0.66 3.32 1.32 4 2 C4.99 2 5.98 2 7 2 C11.71879008 7.24431659 16.09487309 14.14994809 18 21 C17.67 21.99 17.34 22.98 17 24 C16.34 22.68 15.68 21.36 15 20 C15.33 21.65 15.66 23.3 16 25 C15.34 25.33 14.68 25.66 14 26 C13.85304687 25.38253906 13.70609375 24.76507813 13.5546875 24.12890625 C11.12744741 14.96398247 6.730336 8.53238494 0 2 C0 1.34 0 0.68 0 0 Z " fill="#A27B1F" transform="translate(127,35)"/>
<path d="M0 0 C0.66 0.33 1.32 0.66 2 1 C0.97336539 11.55967029 -4.78708338 20.43523379 -12 28 C-12.99 27.34 -13.98 26.68 -15 26 C-14.48050781 25.32195312 -13.96101562 24.64390625 -13.42578125 23.9453125 C-7.73741924 16.35382013 -3.45794207 8.81619465 0 0 Z " fill="#9C7825" transform="translate(155,87)"/>
<path d="M0 0 C7.33768386 4.86002438 12.15102934 10.72654401 17 18 C17 19.32 17 20.64 17 22 C13.37648747 20.79216249 12.84784764 19.70346858 10.8125 16.5625 C10.01779297 15.35787109 10.01779297 15.35787109 9.20703125 14.12890625 C8 12 8 12 8 10 C7.34 10 6.68 10 6 10 C5.67 9.34 5.34 8.68 5 8 C4.01 8 3.02 8 2 8 C-0.1875 5.5 -0.1875 5.5 -2 3 C-1.34 3 -0.68 3 0 3 C0 2.01 0 1.02 0 0 Z " fill="#A17B24" transform="translate(137,24)"/>
<path d="M0 0 C2.475 0.99 2.475 0.99 5 2 C3.68 2.33 2.36 2.66 1 3 C3.32540938 5.73665541 5.05541815 6.48944975 8.5625 7.125 C12.85826772 7.92913386 12.85826772 7.92913386 15 9 C15 9.66 15 10.32 15 11 C6.78762084 11.57184845 0.53994257 10.26682231 -7 7 C-7 6.34 -7 5.68 -7 5 C-6.21625 4.731875 -5.4325 4.46375 -4.625 4.1875 C-1.71885077 3.15185568 -1.71885077 3.15185568 0 0 Z " fill="#C69622" transform="translate(74,118)"/>
<path d="M0 0 C0 3.15135387 -0.35152208 3.92631341 -1.9375 6.5 C-3.30339281 8.73242697 -4.15844227 10.47532682 -5 13 C-5.99 13 -6.98 13 -8 13 C-10.34210921 13.63514826 -12.67684969 14.2986716 -15 15 C-13.62815653 10.93501119 -11.77931541 8.32603439 -8.875 5.1875 C-8.15054688 4.39730469 -7.42609375 3.60710938 -6.6796875 2.79296875 C-6.12539063 2.20128906 -5.57109375 1.60960938 -5 1 C-4.01 1.33 -3.02 1.66 -2 2 C-1.34 1.34 -0.68 0.68 0 0 Z " fill="#A88022" transform="translate(62,25)"/>
<path d="M0 0 C0 0.99 0 1.98 0 3 C0.99 3.33 1.98 3.66 3 4 C3 4.66 3 5.32 3 6 C1.02 6.66 -0.96 7.32 -3 8 C-2.67 8.99 -2.34 9.98 -2 11 C-4.64 11 -7.28 11 -10 11 C-9.3993994 3.67267267 -9.3993994 3.67267267 -7.8125 1 C-5.18759888 -0.44822131 -2.93829584 -0.19588639 0 0 Z " fill="#FDFBEC" transform="translate(106,44)"/>
<path d="M0 0 C2.23775292 1.00313062 3.8507388 1.84476835 5.5625 3.625 C7.02978279 5.34561132 7.02978279 5.34561132 10 5 C10 5.66 10 6.32 10 7 C10.66 7 11.32 7 12 7 C13.76171875 9.51953125 13.76171875 9.51953125 15.6875 12.8125 C16.33074219 13.89144531 16.97398437 14.97039063 17.63671875 16.08203125 C19 19 19 19 18 22 C17.4225 21.113125 16.845 20.22625 16.25 19.3125 C14.29875312 16.40976171 12.36204436 13.5906293 10 11 C9.01 11 8.02 11 7 11 C2.32 7.88 2.32 7.88 1.25 4.9375 C1.1675 4.298125 1.085 3.65875 1 3 C0.67 2.01 0.34 1.02 0 0 Z " fill="#C49620" transform="translate(133,27)"/>
<path d="M0 0 C0.79921875 0.20367187 1.5984375 0.40734375 2.421875 0.6171875 C3.02515625 0.78476562 3.6284375 0.95234375 4.25 1.125 C3.59 1.785 2.93 2.445 2.25 3.125 C2.54369827 4.46762065 2.8778958 5.80196283 3.25 7.125 C2.92 7.785 2.59 8.445 2.25 9.125 C-1.5563457 8.45329194 -5.10206816 7.39753436 -8.75 6.125 C-8.75 4.475 -8.75 2.825 -8.75 1.125 C-5.45750312 -0.91393155 -3.7130065 -0.98285466 0 0 Z " fill="#5E412C" transform="translate(72.75,47.875)"/>
<path d="M0 0 C2 2 2 2 2 6 C1.01 6.495 1.01 6.495 0 7 C-0.33 7.99 -0.66 8.98 -1 10 C-2.8125 10.765625 -2.8125 10.765625 -5 11.25 C-5.721875 11.42015625 -6.44375 11.5903125 -7.1875 11.765625 C-7.785625 11.84296875 -8.38375 11.9203125 -9 12 C-9.33 11.67 -9.66 11.34 -10 11 C-11.65 11.66 -13.3 12.32 -15 13 C-14.67 12.01 -14.34 11.02 -14 10 C-13.01 10 -12.02 10 -11 10 C-11 9.34 -11 8.68 -11 8 C-9.35546875 6.5625 -9.35546875 6.5625 -7.1875 5 C-6.47980469 4.484375 -5.77210938 3.96875 -5.04296875 3.4375 C-3.37919271 2.26681246 -1.69269789 1.12846526 0 0 Z " fill="#E2B02D" transform="translate(136,105)"/>
<path d="M0 0 C-0.56373887 3.47263143 -1.60850967 4.91317065 -4.3125 7.125 C-4.90675781 7.62257813 -5.50101563 8.12015625 -6.11328125 8.6328125 C-8.00252656 10.00183084 -9.8865777 11.02026781 -12 12 C-12.33 11.01 -12.66 10.02 -13 9 C-12.67 8.34 -12.34 7.68 -12 7 C-12.99 7 -13.98 7 -15 7 C-6.58695652 -1.64673913 -6.58695652 -1.64673913 0 0 Z " fill="#BF9222" transform="translate(73,20)"/>
<path d="M0 0 C-0.99 0.33 -1.98 0.66 -3 1 C-3.33 1.99 -3.66 2.98 -4 4 C-4 3.34 -4 2.68 -4 2 C-5.32 2.33 -6.64 2.66 -8 3 C-8 4.32 -8 5.64 -8 7 C-10.31 7.33 -12.62 7.66 -15 8 C-15 8.66 -15 9.32 -15 10 C-17.31 10.33 -19.62 10.66 -22 11 C-19.91764998 5.79412494 -16.2666704 4.30055482 -11.47265625 2.015625 C-7.50080954 0.38421877 -4.29308904 -0.11925247 0 0 Z " fill="#D6A21D" transform="translate(90,10)"/>
<path d="M0 0 C1.32 0.33 2.64 0.66 4 1 C3.34 1 2.68 1 2 1 C2 1.66 2 2.32 2 3 C0 5 0 5 -2.6015625 5.1953125 C-3.59929687 5.17210937 -4.59703125 5.14890625 -5.625 5.125 C-7.12933594 5.09792969 -7.12933594 5.09792969 -8.6640625 5.0703125 C-9.43492188 5.04710937 -10.20578125 5.02390625 -11 5 C-11 5.33 -11 5.66 -11 6 C-17.0018137 6.21824777 -22.19233704 5.5056904 -28 4 C-24.52452927 2.05433049 -22.87493656 1.92362873 -19 3 C-19 2.67 -19 2.34 -19 2 C-12.73 2 -6.46 2 0 2 C0 1.34 0 0.68 0 0 Z " fill="#B68923" transform="translate(110,126)"/>
<path d="M0 0 C0.495 0.268125 0.99 0.53625 1.5 0.8125 C3.87295797 2.0201268 3.87295797 2.0201268 6.01171875 2.58984375 C8.16626005 3.24355556 10.05308915 3.86393074 12 5 C13 8.1875 13 8.1875 13 11 C9.80389448 11 8.58282374 10.45328458 5.8125 9 C5.09707031 8.62875 4.38164063 8.2575 3.64453125 7.875 C2.83048828 7.441875 2.83048828 7.441875 2 7 C2 6.34 2 5.68 2 5 C1.34 5 0.68 5 0 5 C0 3.35 0 1.7 0 0 Z " fill="#4F2F12" transform="translate(82,48)"/>
<path d="M0 0 C1.32 0 2.64 0 4 0 C3.67 3.3 3.34 6.6 3 10 C4.32 10 5.64 10 7 10 C7 10.99 7 11.98 7 13 C4.03 13 1.06 13 -2 13 C-1.48041715 8.62065881 -0.94324258 4.31196609 0 0 Z " fill="#E2DDDA" transform="translate(109,91)"/>
<path d="M0 0 C1.21236328 0.01353516 1.21236328 0.01353516 2.44921875 0.02734375 C3.37154297 0.04474609 3.37154297 0.04474609 4.3125 0.0625 C4.3125 1.7125 4.3125 3.3625 4.3125 5.0625 C-0.63566714 7.86646138 -5.30432285 6.83600507 -10.6875 6.0625 C-10.6875 5.7325 -10.6875 5.4025 -10.6875 5.0625 C-9.0375 5.0625 -7.3875 5.0625 -5.6875 5.0625 C-6.3475 3.7425 -7.0075 2.4225 -7.6875 1.0625 C-4.80538698 0.10179566 -2.98899956 -0.04331883 0 0 Z " fill="#AD8B5A" transform="translate(109.6875,49.9375)"/>
<path d="M0 0 C1.32 0.66 2.64 1.32 4 2 C2.68 2 1.36 2 0 2 C0 2.66 0 3.32 0 4 C0.66 4.33 1.32 4.66 2 5 C2 5.66 2 6.32 2 7 C0.21385682 8.03046722 -1.57910018 9.04913236 -3.375 10.0625 C-4.37273437 10.63097656 -5.37046875 11.19945312 -6.3984375 11.78515625 C-7.25695312 12.18605469 -8.11546875 12.58695313 -9 13 C-9.66 12.67 -10.32 12.34 -11 12 C-11 11.34 -11 10.68 -11 10 C-10.34 10 -9.68 10 -9 10 C-8.91878906 9.40703125 -8.83757812 8.8140625 -8.75390625 8.203125 C-7.76881766 5.32442051 -6.40792493 4.47537614 -3.9375 2.75 C-3.20402344 2.22921875 -2.47054687 1.7084375 -1.71484375 1.171875 C-1.14894531 0.78515625 -0.58304688 0.3984375 0 0 Z " fill="#BC8F22" transform="translate(79,24)"/>
<path d="M0 0 C0.05423638 1.91635217 0.09289963 3.83314925 0.125 5.75 C0.14820313 6.81734375 0.17140625 7.8846875 0.1953125 8.984375 C0.00487687 11.92470106 -0.47329896 13.52361878 -2 16 C-2.66 15.34 -3.32 14.68 -4 14 C-4.66 14.66 -5.32 15.32 -6 16 C-6.34707004 10.21549928 -6.27233705 6.03436469 -3 1 C-1 0 -1 0 0 0 Z " fill="#AC8123" transform="translate(159,72)"/>
<path d="M0 0 C4.75 0.875 4.75 0.875 7 2 C8.87379605 2.07033769 10.75001102 2.0843022 12.625 2.0625 C13.62789062 2.05347656 14.63078125 2.04445313 15.6640625 2.03515625 C16.82035156 2.01775391 16.82035156 2.01775391 18 2 C19 5 19 5 18 8 C17.34 8 16.68 8 16 8 C16 7.34 16 6.68 16 6 C15.01 6.33 14.02 6.66 13 7 C10.95703125 6.87890625 10.95703125 6.87890625 8.8125 6.5625 C7.554375 6.376875 6.29625 6.19125 5 6 C5 5.34 5 4.68 5 4 C2.525 3.01 2.525 3.01 0 2 C0 1.34 0 0.68 0 0 Z " fill="#4C2C11" transform="translate(39,94)"/>
<path d="M0 0 C0.804375 0.4640625 0.804375 0.4640625 1.625 0.9375 C4.3984957 2.17827439 7.00042837 2.5909675 10 3 C8.12050295 6.57104439 6.82946843 8.54744301 3 10 C2.34 8.35 1.68 6.7 1 5 C-0.98 5.99 -0.98 5.99 -3 7 C-2.38722388 4.03824877 -1.74627478 2.61941217 0 0 Z " fill="#AD8522" transform="translate(135,101)"/>
<path d="M0 0 C1.65 0 3.3 0 5 0 C5 0.66 5 1.32 5 2 C6.26457031 2.25394531 7.52914062 2.50789063 8.83203125 2.76953125 C10.49231137 3.11659546 12.15246099 3.46428434 13.8125 3.8125 C14.64587891 3.97814453 15.47925781 4.14378906 16.33789062 4.31445312 C17.14033203 4.48525391 17.94277344 4.65605469 18.76953125 4.83203125 C19.50792236 4.98389893 20.24631348 5.1357666 21.00708008 5.29223633 C23.30612523 6.10871702 24.4179421 7.17286536 26 9 C25.01902344 8.68289062 24.03804687 8.36578125 23.02734375 8.0390625 C18.88073218 6.85431634 14.85460863 6.5634915 10.5625 6.375 C9.83095703 6.33632813 9.09941406 6.29765625 8.34570312 6.2578125 C6.56416468 6.16466016 4.78211878 6.08129714 3 6 C3 5.34 3 4.68 3 4 C2.34 3.67 1.68 3.34 1 3 C0.67 3.66 0.34 4.32 0 5 C0 3.35 0 1.7 0 0 Z " fill="#DAA523" transform="translate(91,20)"/>
<path d="M0 0 C0.556875 0.28875 1.11375 0.5775 1.6875 0.875 C6.50570998 3.21899404 10.41996877 4.29817993 15.8125 4.625 C17.55466797 4.73714844 17.55466797 4.73714844 19.33203125 4.8515625 C20.21246094 4.90054688 21.09289062 4.94953125 22 5 C22 5.33 22 5.66 22 6 C20.75283203 6.19916016 20.75283203 6.19916016 19.48046875 6.40234375 C18.39378906 6.57894531 17.30710937 6.75554687 16.1875 6.9375 C15.10855469 7.11152344 14.02960938 7.28554687 12.91796875 7.46484375 C9.95066644 7.93871921 9.95066644 7.93871921 7 9 C6.34 8.34 5.68 7.68 5 7 C5 6.67 5 6.34 5 6 C3.02 5.34 1.04 4.68 -1 4 C-0.34 3.67 0.32 3.34 1 3 C0.67 2.01 0.34 1.02 0 0 Z " fill="#E3AF2B" transform="translate(78,112)"/>
<path d="M0 0 C2.64 0 5.28 0 8 0 C7.34 0.66 6.68 1.32 6 2 C5.01 2 4.02 2 3 2 C2.67 4.64 2.34 7.28 2 10 C2.66 10.33 3.32 10.66 4 11 C3 12 3 12 0.4375 12.0625 C-0.366875 12.041875 -1.17125 12.02125 -2 12 C-1.85904936 10.3745692 -1.71207913 8.74965949 -1.5625 7.125 C-1.48128906 6.22007813 -1.40007812 5.31515625 -1.31640625 4.3828125 C-1 2 -1 2 0 0 Z " fill="#F2EFED" transform="translate(120,91)"/>
<path d="M0 0 C0.66 0.99 1.32 1.98 2 3 C3.32 3.66 4.64 4.32 6 5 C-1.26 5 -8.52 5 -16 5 C-14 3 -14 3 -11.1796875 2.8046875 C-10.08914062 2.82789063 -8.99859375 2.85109375 -7.875 2.875 C-6.77929688 2.89304687 -5.68359375 2.91109375 -4.5546875 2.9296875 C-3.71164063 2.95289063 -2.86859375 2.97609375 -2 3 C-2 2.34 -2 1.68 -2 1 C-4.31 1 -6.62 1 -9 1 C-9 0.67 -9 0.34 -9 0 C-3.375 -1.125 -3.375 -1.125 0 0 Z " fill="#C39427" transform="translate(104,14)"/>
<path d="M0 0 C2.31 0.33 4.62 0.66 7 1 C6.01 1.66 5.02 2.32 4 3 C3.67 3.99 3.34 4.98 3 6 C3.66 6.33 4.32 6.66 5 7 C4.01 7.495 4.01 7.495 3 8 C2.34444881 10.52733235 2.34444881 10.52733235 2 13 C0.68 13 -0.64 13 -2 13 C-1.34 8.71 -0.68 4.42 0 0 Z " fill="#ECE9E6" transform="translate(96,91)"/>
<path d="M0 0 C-1.40631983 3.11896676 -3.09754896 5.45402854 -5.375 8 C-5.99246094 8.6909375 -6.60992187 9.381875 -7.24609375 10.09375 C-9.110649 12.12025994 -11.0132807 14.09274947 -13 16 C-12.66480526 10.63688421 -9.45865747 6.87175239 -6 3 C-2.42825112 0 -2.42825112 0 0 0 Z " fill="#502E11" transform="translate(130,66)"/>
<path d="M0 0 C0.99 0 1.98 0 3 0 C3 0.66 3 1.32 3 2 C3.66 2 4.32 2 5 2 C5 2.66 5 3.32 5 4 C5.5775 4.185625 6.155 4.37125 6.75 4.5625 C10.10427843 6.70551122 11.17907996 9.48822563 13 13 C7.51630725 11.72472262 5.22183444 9.56426545 2 5 C0.6875 2.125 0.6875 2.125 0 0 Z " fill="#DFAD2C" transform="translate(60,102)"/>
<path d="M0 0 C0.99 0 1.98 0 3 0 C3 0.66 3 1.32 3 2 C1.84026705 3.12562315 0.67804841 4.24879039 -0.49609375 5.359375 C-2.95080907 8.03724626 -4.76246999 11.1250504 -6.66796875 14.20703125 C-7.10753906 14.79871094 -7.54710937 15.39039062 -8 16 C-8.66 16 -9.32 16 -10 16 C-8.38920595 9.55682381 -4.63830054 4.63830054 0 0 Z " fill="#4F2E11" transform="translate(181,67)"/>
<path d="M0 0 C4.80569222 1.94076032 8.35226485 3.96589727 11.25 8.3125 C7.30050296 7.68433502 4.05107972 6.4479471 0.4375 4.75 C-1.02623047 4.06744141 -1.02623047 4.06744141 -2.51953125 3.37109375 C-3.25558594 3.02175781 -3.99164063 2.67242188 -4.75 2.3125 C-4.75 1.6525 -4.75 0.9925 -4.75 0.3125 C-2.75 -0.6875 -2.75 -0.6875 0 0 Z " fill="#B68A23" transform="translate(123.75,18.6875)"/>
<path d="M0 0 C1.06640625 1.84765625 1.06640625 1.84765625 2 4 C0.19190004 8.14799403 -2.79580682 10.87796562 -6 14 C-6.99 15.485 -6.99 15.485 -8 17 C-9.32 17 -10.64 17 -12 17 C-11 15 -11 15 -8.8125 13 C-4.99236732 9.30273708 -2.59422638 4.59115665 0 0 Z " fill="#DDB015" transform="translate(67,64)"/>
<path d="M0 0 C1.32 1.32 2.64 2.64 4 4 C3.01 4.495 3.01 4.495 2 5 C2 5.99 2 6.98 2 8 C2.99 8.33 3.98 8.66 5 9 C3.68 9.33 2.36 9.66 1 10 C0.67 8.68 0.34 7.36 0 6 C-2.64 5.34 -5.28 4.68 -8 4 C-4.91190305 2.23537317 -3.76687864 2 0 2 C0 1.34 0 0.68 0 0 Z " fill="#E7D39C" transform="translate(94,47)"/>
<path d="M0 0 C3 2 3 2 3.75 5 C4 8 4 8 3 10 C2.01 10 1.02 10 0 10 C0 11.65 0 13.3 0 15 C-0.99 15 -1.98 15 -3 15 C-5.125 10.375 -5.125 10.375 -4 7 C-3.34 8.32 -2.68 9.64 -2 11 C-2 10.01 -2 9.02 -2 8 C-1.34 8 -0.68 8 0 8 C0 5.36 0 2.72 0 0 Z " fill="#C69925" transform="translate(146,45)"/>
<path d="M0 0 C4.95787135 1.79034243 8.0495169 3.57427536 11 8 C9 8.875 9 8.875 6 9 C3.10933821 7.26346566 0.55843792 5.19022601 -2 3 C-1.01 2.67 -0.02 2.34 1 2 C0.67 1.34 0.34 0.68 0 0 Z " fill="#B48823" transform="translate(59,115)"/>
<path d="M0 0 C0.99 0 1.98 0 3 0 C2.33501617 4.38889325 0.81242323 7.9811485 -1 12 C-2.32 12 -3.64 12 -5 12 C-5.1875 9.625 -5.1875 9.625 -5 7 C-4.01 6.34 -3.02 5.68 -2 5 C-0.79549696 2.44816596 -0.79549696 2.44816596 0 0 Z " fill="#E9E5E2" transform="translate(78,91)"/>
<path d="M0 0 C0.66 0 1.32 0 2 0 C2 0.66 2 1.32 2 2 C2.66 2.33 3.32 2.66 4 3 C1.36 6.63 -1.28 10.26 -4 14 C-5.305239 10.08428299 -4.32239848 8.96107003 -2.5625 5.3125 C-2.08941406 4.31863281 -1.61632813 3.32476562 -1.12890625 2.30078125 C-0.75636719 1.54152344 -0.38382813 0.78226562 0 0 Z " fill="#543311" transform="translate(61,66)"/>
<path d="M0 0 C2.25 0.25 2.25 0.25 4 1 C3.01 1.33 2.02 1.66 1 2 C0.566875 2.86625 0.566875 2.86625 0.125 3.75 C-1 6 -1 6 -3.3125 8.1875 C-6.71245051 11.74558774 -8.77037316 15.64511183 -11 20 C-11.99 19.34 -12.98 18.68 -14 18 C-13.57589844 17.61714844 -13.15179688 17.23429687 -12.71484375 16.83984375 C-9.89264491 13.81192655 -7.9602424 10.21650596 -5.81640625 6.69140625 C-4.0668045 4.09898559 -2.37749045 2.02885641 0 0 Z " fill="#DCAE16" transform="translate(100,58)"/>
<path d="M0 0 C0.66 0.33 1.32 0.66 2 1 C-2.625 6.875 -2.625 6.875 -6 8 C-7.68538601 9.99665314 -7.68538601 9.99665314 -9 12 C-10.32 11.34 -11.64 10.68 -13 10 C-12.01 9.34 -11.02 8.68 -10 8 C-8.76872162 6.86496889 -8.76872162 6.86496889 -7.625 4.4375 C-7.08875 3.633125 -6.5525 2.82875 -6 2 C-5.01 2 -4.02 2 -3 2 C-2.01 1.34 -1.02 0.68 0 0 Z " fill="#EFB821" transform="translate(66,28)"/>
<path d="M0 0 C-10.37357631 6.70387244 -10.37357631 6.70387244 -16 7 C-14.98058136 4.27964127 -14.30907756 3.17930806 -11.7578125 1.69921875 C-10.45457031 1.19841797 -10.45457031 1.19841797 -9.125 0.6875 C-8.26132813 0.34074219 -7.39765625 -0.00601563 -6.5078125 -0.36328125 C-3.8579395 -1.03606832 -2.5378362 -0.91480142 0 0 Z " fill="#B68A23" transform="translate(129,125)"/>
<path d="M0 0 C2.49361571 1.20381448 4.68143083 2.45428722 7 4 C7.66 3.34 8.32 2.68 9 2 C9.61875 2.6496875 9.61875 2.6496875 10.25 3.3125 C12.06054505 5.05838272 13.96474232 6.52619271 16 8 C15.67 8.66 15.34 9.32 15 10 C14.401875 9.67 13.80375 9.34 13.1875 9 C10.94613529 7.79212012 10.94613529 7.79212012 8 8 C6.2109375 7.01171875 6.2109375 7.01171875 4.375 5.6875 C3.76398437 5.25824219 3.15296875 4.82898438 2.5234375 4.38671875 C1 3 1 3 0 0 Z " fill="#A5802D" transform="translate(56,107)"/>
<path d="M0 0 C0.33 0 0.66 0 1 0 C1 2.64 1 5.28 1 8 C2.32 8 3.64 8 5 8 C5.33 6.35 5.66 4.7 6 3 C6.33 3 6.66 3 7 3 C7 4.65 7 6.3 7 8 C8.32 8 9.64 8 11 8 C11 7.34 11 6.68 11 6 C11.66 6 12.32 6 13 6 C12.67 7.32 12.34 8.64 12 10 C10.7625 10.020625 9.525 10.04125 8.25 10.0625 C7.55390625 10.07410156 6.8578125 10.08570312 6.140625 10.09765625 C4 10 4 10 0 9 C0 6.03 0 3.06 0 0 Z " fill="#786152" transform="translate(66,95)"/>
<path d="M0 0 C0 2.64 0 5.28 0 8 C-0.33 7.34 -0.66 6.68 -1 6 C-3.16666667 6.83333333 -3.16666667 6.83333333 -4 9 C-4.99 8.67 -5.98 8.34 -7 8 C-7.3125 5.6875 -7.3125 5.6875 -7 3 C-4.6167054 1.18116991 -3.04181663 0 0 0 Z " fill="#AB8937" transform="translate(64,96)"/>
<path d="M0 0 C0.7734375 0.495 0.7734375 0.495 1.5625 1 C1.5625 1.66 1.5625 2.32 1.5625 3 C-2.0675 3 -5.6975 3 -9.4375 3 C-9.4375 2.34 -9.4375 1.68 -9.4375 1 C-10.4275 0.67 -11.4175 0.34 -12.4375 0 C-8.17949462 -1.41933513 -4.20838462 -1.72651677 0 0 Z " fill="#D09C1F" transform="translate(87.4375,126)"/>
<path d="M0 0 C1 3 1 3 -0.22265625 5.453125 C-3.85276521 10.9715072 -7.54925233 16.11503305 -12 21 C-12.66 20.67 -13.32 20.34 -14 20 C-13 17 -13 17 -10.70703125 15.234375 C-7.56136531 12.63795232 -5.70234228 9.72913942 -3.6875 6.25 C-3.14899414 5.34701172 -3.14899414 5.34701172 -2.59960938 4.42578125 C-1.7244967 2.95559196 -0.86102469 1.47848409 0 0 Z " fill="#E8AF1A" transform="translate(151,94)"/>
<path d="M0 0 C6.44070471 -0.10655578 12.62641289 0.03794912 19 1 C19 1.33 19 1.66 19 2 C12.97403427 3.0712828 7.11090483 3.09945415 1 3 C0.67 2.01 0.34 1.02 0 0 Z " fill="#B99338" transform="translate(88,121)"/>
<path d="M0 0 C2.875 0.1875 2.875 0.1875 6 1 C7.1875 3.5 7.1875 3.5 8 6 C8.99 6.33 9.98 6.66 11 7 C10.67 7.99 10.34 8.98 10 10 C6.125 6.25 6.125 6.25 5 4 C4.01 4.495 4.01 4.495 3 5 C2.01 4.34 1.02 3.68 0 3 C0 2.01 0 1.02 0 0 Z " fill="#DEAA1A" transform="translate(45,99)"/>
<path d="M0 0 C0.66 0.33 1.32 0.66 2 1 C1.50269348 5.97306516 0.44697666 9.63799813 -2 14 C-3.1171875 12.328125 -3.1171875 12.328125 -4 10 C-3.3203125 7.421875 -3.3203125 7.421875 -2.125 4.75 C-1.73570312 3.85796875 -1.34640625 2.9659375 -0.9453125 2.046875 C-0.63335937 1.37140625 -0.32140625 0.6959375 0 0 Z " fill="#957226" transform="translate(155,87)"/>
<path d="M0 0 C0.99 0 1.98 0 3 0 C3 2.64 3 5.28 3 8 C3.66 8 4.32 8 5 8 C5 9.32 5 10.64 5 12 C3.68 12 2.36 12 1 12 C0.67 8.04 0.34 4.08 0 0 Z " fill="#F9F8F7" transform="translate(66,91)"/>
<path d="M0 0 C0.66 0 1.32 0 2 0 C1.52492969 4.27563279 -0.95302534 6.16560497 -4 9 C-5.1446875 10.1446875 -5.1446875 10.1446875 -6.3125 11.3125 C-6.869375 11.869375 -7.42625 12.42625 -8 13 C-8.66 12.67 -9.32 12.34 -10 12 C-8.56004214 9.12008429 -6.2715201 7.2715201 -4 5 C-3.278125 4.071875 -2.55625 3.14375 -1.8125 2.1875 C-1.214375 1.465625 -0.61625 0.74375 0 0 Z " fill="#D9AC15" transform="translate(126,71)"/>
<path d="M0 0 C1.134375 0.020625 2.26875 0.04125 3.4375 0.0625 C3.4375 1.3825 3.4375 2.7025 3.4375 4.0625 C0.7975 4.3925 -1.8425 4.7225 -4.5625 5.0625 C-4.5625 0.08004386 -4.5625 0.08004386 0 0 Z " fill="#F9F3DF" transform="translate(88.5625,43.9375)"/>
<path d="M0 0 C0 0.66 0 1.32 0 2 C1.32 2.33 2.64 2.66 4 3 C3.34 3 2.68 3 2 3 C2 3.66 2 4.32 2 5 C-0.64 5.33 -3.28 5.66 -6 6 C-6 5.01 -6 4.02 -6 3 C-6.66 2.34 -7.32 1.68 -8 1 C-5.07175348 0.02391783 -3.04386724 -0.08226668 0 0 Z " fill="#B4871F" transform="translate(92,21)"/>
<path d="M0 0 C4.48525648 0.656379 8.66914029 1.70074209 13 3 C13 3.66 13 4.32 13 5 C11.39504433 4.88557539 9.79101881 4.75805306 8.1875 4.625 C7.29417969 4.55539063 6.40085937 4.48578125 5.48046875 4.4140625 C3 4 3 4 0 2 C0 1.34 0 0.68 0 0 Z " fill="#FABB16" transform="translate(75,121)"/>
<path d="M0 0 C0.66 0 1.32 0 2 0 C1.93993922 1.45947705 1.8511311 2.91779272 1.75 4.375 C1.70359375 5.18710937 1.6571875 5.99921875 1.609375 6.8359375 C1 9 1 9 -0.921875 10.3515625 C-3 11 -3 11 -5 10 C-3.35 6.7 -1.7 3.4 0 0 Z " fill="#735019" transform="translate(44,43)"/>
<path d="M0 0 C0 0.66 0 1.32 0 2 C-2.5 3.625 -2.5 3.625 -5 5 C-3.68 5.66 -2.36 6.32 -1 7 C-3.64 7.33 -6.28 7.66 -9 8 C-8.25 3.25 -8.25 3.25 -6 1 C-3.90200436 0.34437636 -2.19959601 0 0 0 Z " fill="#EDD899" transform="translate(70,40)"/>
<path d="M0 0 C0.99 0.66 1.98 1.32 3 2 C2.01 3.485 2.01 3.485 1 5 C1.99 5 2.98 5 4 5 C2.84826645 7.46800047 1.95216435 9.04783565 0 11 C0 9.68 0 8.36 0 7 C-0.99 6.67 -1.98 6.34 -3 6 C-1.125 1.125 -1.125 1.125 0 0 Z " fill="#A68026" transform="translate(60,35)"/>
<path d="M0 0 C1.65 0 3.3 0 5 0 C5 1.32 5 2.64 5 4 C4.01 4 3.02 4 2 4 C-0.34210921 4.63514826 -2.67684969 5.2986716 -5 6 C-4.34 4.35 -3.68 2.7 -3 1 C-2.34 1.33 -1.68 1.66 -1 2 C-0.67 1.34 -0.34 0.68 0 0 Z " fill="#A07A22" transform="translate(52,34)"/>
<path d="M0 0 C5.6759062 0.34750446 9.98235954 1.7747611 14 6 C14 6.99 14 7.98 14 9 C10.41844487 7.34697456 7.27671443 5.18447628 4 3 C2.6808418 2.30570621 1.35350594 1.62469505 0 1 C0 0.67 0 0.34 0 0 Z " fill="#D5A11D" transform="translate(123,18)"/>
<path d="M0 0 C1 3 1 3 -0.00390625 5.26171875 C-1.55770081 7.68003059 -3.03827192 9.89536458 -5 12 C-8.375 12.5625 -8.375 12.5625 -11 12 C-11 11.34 -11 10.68 -11 10 C-10.24332031 9.92910156 -9.48664063 9.85820313 -8.70703125 9.78515625 C-5.22671542 8.775714 -4.53701606 7.4913521 -2.6875 4.4375 C-2.17574219 3.61121094 -1.66398438 2.78492187 -1.13671875 1.93359375 C-0.76160156 1.29550781 -0.38648438 0.65742187 0 0 Z " fill="#DFB015" transform="translate(198,74)"/>
<path d="M0 0 C-0.99 0.495 -0.99 0.495 -2 1 C-1.67 1.66 -1.34 2.32 -1 3 C-5.75 6 -5.75 6 -8 6 C-8 5.34 -8 4.68 -8 4 C-8.66 3.67 -9.32 3.34 -10 3 C-10 2.34 -10 1.68 -10 1 C-3.71428571 -1.42857143 -3.71428571 -1.42857143 0 0 Z " fill="#DAA826" transform="translate(89,25)"/>
<path d="M0 0 C3.96 0 7.92 0 12 0 C12.33 0.99 12.66 1.98 13 3 C11.58376784 3.05447047 10.16691809 3.09300508 8.75 3.125 C7.96109375 3.14820313 7.1721875 3.17140625 6.359375 3.1953125 C3.79268059 2.9828378 2.2083933 2.28654105 0 1 C0 0.67 0 0.34 0 0 Z " fill="#D29E1E" transform="translate(107,15)"/>
<path d="M0 0 C0.66 0.66 1.32 1.32 2 2 C1.625 4.125 1.625 4.125 1 6 C-0.32 6 -1.64 6 -3 6 C-4.67225729 6.30404678 -6.34080104 6.63128912 -8 7 C-5.42215154 4.35247996 -3.08351902 2.05567935 0 0 Z " fill="#CA9F2E" transform="translate(136,105)"/>
<path d="M0 0 C1.32 0 2.64 0 4 0 C4.125 2.375 4.125 2.375 4 5 C3.34 5.66 2.68 6.32 2 7 C1.01 7 0.02 7 -1 7 C-1.04254356 5.00045254 -1.04080783 2.99958364 -1 1 C-0.67 0.67 -0.34 0.34 0 0 Z " fill="#533522" transform="translate(86,94)"/>
<path d="M0 0 C0.495 0.268125 0.99 0.53625 1.5 0.8125 C4.9236946 2.43875493 8.44132285 3.69515171 12 5 C12 5.66 12 6.32 12 7 C10.56208484 6.85831863 9.1246763 6.71148957 7.6875 6.5625 C6.88699219 6.48128906 6.08648437 6.40007813 5.26171875 6.31640625 C3 6 3 6 0 5 C0 3.35 0 1.7 0 0 Z " fill="#AA873E" transform="translate(82,48)"/>
<path d="M0 0 C1.65 0.33 3.3 0.66 5 1 C4.67 2.65 4.34 4.3 4 6 C2.35 5.67 0.7 5.34 -1 5 C-0.67 3.35 -0.34 1.7 0 0 Z " fill="#E7E3DF" transform="translate(71,51)"/>
<path d="M0 0 C1.39607277 3.74360914 0.57200275 6.02321534 -0.8125 9.6875 C-1.16957031 10.66074219 -1.52664062 11.63398437 -1.89453125 12.63671875 C-3 15 -3 15 -5 16 C-3.38235294 3.38235294 -3.38235294 3.38235294 0 0 Z " fill="#E2AE18" transform="translate(153,80)"/>
<path d="M0 0 C2.9719385 1.12451727 5.33440687 2.22293791 8 4 C8 5.32 8 6.64 8 8 C5.03 7.505 5.03 7.505 2 7 C2 6.01 2 5.02 2 4 C1.05021103 1.84971696 1.05021103 1.84971696 0 0 Z " fill="#E4AD20" transform="translate(66,114)"/>
<path d="M0 0 C2.9375 0.8125 2.9375 0.8125 6 2 C6.33 2.99 6.66 3.98 7 5 C4.36 5 1.72 5 -1 5 C-0.67 3.35 -0.34 1.7 0 0 Z " fill="#F5EDD8" transform="translate(97,50)"/>
<path d="M0 0 C0.33 0.99 0.66 1.98 1 3 C-0.4375 5.6875 -0.4375 5.6875 -3 8 C-5.80235294 8.43770084 -8.13921302 8.23839891 -11 8 C-9.20114553 6.80076369 -7.37421156 5.64017165 -5.5 4.5625 C-3.31193107 3.19495692 -1.71903345 1.89998434 0 0 Z " fill="#42220C" transform="translate(108,82)"/>
<path d="M0 0 C1.32 0 2.64 0 4 0 C4.042721 1.66611905 4.04063832 3.33382885 4 5 C3 6 3 6 -0.5625 6.0625 C-1.696875 6.041875 -2.83125 6.02125 -4 6 C-2.68 5.67 -1.36 5.34 0 5 C0 3.35 0 1.7 0 0 Z " fill="#583B28" transform="translate(98,99)"/>
<path d="M0 0 C0.33 0 0.66 0 1 0 C1.144375 1.11375 1.28875 2.2275 1.4375 3.375 C1.78372035 6.82142047 1.78372035 6.82142047 3 9 C1.35 9 -0.3 9 -2 9 C-2.125 5.625 -2.125 5.625 -2 2 C-1.34 1.34 -0.68 0.68 0 0 Z " fill="#F7F5F4" transform="translate(84,94)"/>
<path d="M0 0 C0.66 0.66 1.32 1.32 2 2 C-2.18461538 6.92307692 -2.18461538 6.92307692 -6.3125 7.3125 C-7.199375 7.209375 -8.08625 7.10625 -9 7 C-9 6.34 -9 5.68 -9 5 C-8.34 5 -7.68 5 -7 5 C-7 4.34 -7 3.68 -7 3 C-6.34 3 -5.68 3 -5 3 C-5 3.66 -5 4.32 -5 5 C-3.35 3.35 -1.7 1.7 0 0 Z " fill="#E6B515" transform="translate(107,80)"/>
<path d="M0 0 C2.475 0.495 2.475 0.495 5 1 C4.67 2.65 4.34 4.3 4 6 C2.68 5.67 1.36 5.34 0 5 C0 3.35 0 1.7 0 0 Z " fill="#EFECE9" transform="translate(64,49)"/>
<path d="M0 0 C2 1.125 2 1.125 4 3 C4.25 6.1875 4.25 6.1875 4 9 C2.02 7.35 0.04 5.7 -2 4 C-1.34 3.67 -0.68 3.34 0 3 C0 2.01 0 1.02 0 0 Z " fill="#AD8423" transform="translate(137,24)"/>
<path d="M0 0 C2.00045613 0.26956501 3.98036247 0.68194312 5.953125 1.109375 C3.53182169 3.53067831 2.15201123 3.63778004 -1.171875 4.234375 C-2.08195312 4.40195312 -2.99203125 4.56953125 -3.9296875 4.7421875 C-4.62835938 4.86335938 -5.32703125 4.98453125 -6.046875 5.109375 C-3.15469741 0.16857162 -3.15469741 0.16857162 0 0 Z " fill="#F4BB29" transform="translate(75.046875,21.890625)"/>
<path d="M0 0 C2.66735273 2.48952921 4.55746343 4.63408134 6 8 C0.33846154 6.52307692 0.33846154 6.52307692 -1.375 3.875 C-1.58125 3.25625 -1.7875 2.6375 -2 2 C-1.34 2 -0.68 2 0 2 C0 1.34 0 0.68 0 0 Z " fill="#C29420" transform="translate(55,110)"/>
<path d="M0 0 C0.66 0.66 1.32 1.32 2 2 C-1.32307692 5.93846154 -1.32307692 5.93846154 -4.75 6.25 C-5.4925 6.1675 -6.235 6.085 -7 6 C-6.67 4.35 -6.34 2.7 -6 1 C-5.34 1.66 -4.68 2.32 -4 3 C-2.68 2.01 -1.36 1.02 0 0 Z " fill="#D4A515" transform="translate(76,80)"/>
<path d="M0 0 C1.32 0.66 2.64 1.32 4 2 C-1.41538462 5.07692308 -1.41538462 5.07692308 -4.375 4.6875 C-4.91125 4.460625 -5.4475 4.23375 -6 4 C-4.02 2.68 -2.04 1.36 0 0 Z " fill="#B78B22" transform="translate(76,13)"/>
<path d="M0 0 C0 1.66666667 0 3.33333333 0 5 C-0.66 5 -1.32 5 -2 5 C-2 4.34 -2 3.68 -2 3 C-2.99 3.33 -3.98 3.66 -5 4 C-7.1875 3.0625 -7.1875 3.0625 -9 2 C-6.32750728 -0.67249272 -3.5165484 -1.7582742 0 0 Z " fill="#77531A" transform="translate(57,97)"/>
<path d="M0 0 C0.99 0.33 1.98 0.66 3 1 C3.33 1.99 3.66 2.98 4 4 C2.6875 6.1875 2.6875 6.1875 1 8 C0.34 8 -0.32 8 -1 8 C-1.125 2.25 -1.125 2.25 0 0 Z " fill="#5C3911" transform="translate(137,75)"/>
<path d="M0 0 C5.78461538 4.18461538 5.78461538 4.18461538 6.875 8.3125 C6.936875 9.6428125 6.936875 9.6428125 7 11 C6.34 11 5.68 11 5 11 C4.731875 10.2575 4.46375 9.515 4.1875 8.75 C3.05593565 6.12953519 1.71182842 4.2565011 0 2 C0 1.34 0 0.68 0 0 Z " fill="#9B7621" transform="translate(144,40)"/>
<path d="M0 0 C0.33 0.99 0.66 1.98 1 3 C-0.65 4.65 -2.3 6.3 -4 8 C-4.66 7.34 -5.32 6.68 -6 6 C-4 4 -2 2 0 0 Z " fill="#A98124" transform="translate(146,107)"/>
<path d="M0 0 C0.66 0.99 1.32 1.98 2 3 C-0.31 6.63 -2.62 10.26 -5 14 C-5.33 13.34 -5.66 12.68 -6 12 C-4.78515625 9.1796875 -4.78515625 9.1796875 -3.0625 5.875 C-2.49660156 4.77929688 -1.93070312 3.68359375 -1.34765625 2.5546875 C-0.90292969 1.71164063 -0.45820312 0.86859375 0 0 Z " fill="#613E12" transform="translate(93,62)"/>
<path d="M0 0 C3.375 0.25 3.375 0.25 7 1 C8.4375 3.0625 8.4375 3.0625 9 5 C6.1875 5.3125 6.1875 5.3125 3 5 C1.125 2.5 1.125 2.5 0 0 Z " fill="#B78A1F" transform="translate(70,110)"/>
<path d="M0 0 C1.125 3.75 1.125 3.75 0 6 C-1.32 6 -2.64 6 -4 6 C-4 4.35 -4 2.7 -4 1 C-2.68 0.67 -1.36 0.34 0 0 Z " fill="#F8F7F6" transform="translate(77,97)"/>
<path d="M0 0 C3.32637022 2.69277589 4.58473125 6.03724749 6 10 C5.67 10.99 5.34 11.98 5 13 C4.34 10.69 3.68 8.38 3 6 C2.34 6 1.68 6 1 6 C0.67 4.02 0.34 2.04 0 0 Z " fill="#A37C22" transform="translate(139,46)"/>
<path d="M0 0 C0.99 0 1.98 0 3 0 C3 0.66 3 1.32 3 2 C6.3 2 9.6 2 13 2 C13 2.33 13 2.66 13 3 C8.05 3 3.1 3 -2 3 C-1.34 2.67 -0.68 2.34 0 2 C0 1.34 0 0.68 0 0 Z " fill="#FBBC18" transform="translate(92,125)"/>
<path d="M0 0 C0.33 0 0.66 0 1 0 C1.2226746 1.43534841 1.42761906 2.87345525 1.625 4.3125 C1.74101562 5.11300781 1.85703125 5.91351563 1.9765625 6.73828125 C2 9 2 9 0 12 C-1.88059033 10.11940967 -1.12361218 7.50109962 -1.1328125 5.0078125 C-1 3 -1 3 0 0 Z " fill="#40220F" transform="translate(160,72)"/>
<path d="M0 0 C-1.01454452 2.5363613 -1.6853556 3.79351461 -4 5.3125 C-4.66 5.539375 -5.32 5.76625 -6 6 C-6.66 5.67 -7.32 5.34 -8 5 C-2.25 0 -2.25 0 0 0 Z " fill="#634012" transform="translate(130,66)"/>
<path d="M0 0 C0.33 0.66 0.66 1.32 1 2 C1.99 2 2.98 2 4 2 C2.75453595 5.73639216 1.36595047 6.18756513 -2 8 C-1.47731534 5.23723823 -0.89130413 2.6739124 0 0 Z " fill="#593712" transform="translate(31,59)"/>
<path d="M0 0 C1.8871875 0.061875 1.8871875 0.061875 3.8125 0.125 C3.8125 0.455 3.8125 0.785 3.8125 1.125 C2.389375 1.24875 2.389375 1.24875 0.9375 1.375 C-2.29211791 1.77574923 -2.29211791 1.77574923 -3.5625 4.1875 C-3.76875 4.826875 -3.975 5.46625 -4.1875 6.125 C-4.5175 5.135 -4.8475 4.145 -5.1875 3.125 C-5.8475 2.795 -6.5075 2.465 -7.1875 2.125 C-4.09861478 0.06574319 -3.47814073 -0.1140374 0 0 Z " fill="#5C3D1F" transform="translate(123.1875,54.875)"/>
<path d="M0 0 C1.32 0.33 2.64 0.66 4 1 C4 1.99 4 2.98 4 4 C4.99 4.33 5.98 4.66 7 5 C5.68 5.33 4.36 5.66 3 6 C3 5.34 3 4.68 3 4 C1.02 4 -0.96 4 -3 4 C-2.505 3.525625 -2.01 3.05125 -1.5 2.5625 C0.11542197 1.24076302 0.11542197 1.24076302 0 0 Z " fill="#F6EDD5" transform="translate(106,44)"/>
<path d="M0 0 C3 0 3 0 5 1 C5.73075648 3.3140622 6.40138258 5.64828869 7 8 C3.28631113 6.76210371 2.22645819 5.14775123 0 2 C0 1.34 0 0.68 0 0 Z " fill="#A68125" transform="translate(139,37)"/>
<path d="M0 0 C3.25543229 0.34879632 4.01873107 1.02133261 6.25 3.5625 C6.8275 4.366875 7.405 5.17125 8 6 C7.01 6 6.02 6 5 6 C5 5.34 5 4.68 5 4 C3.68 4.33 2.36 4.66 1 5 C0.67 3.35 0.34 1.7 0 0 Z " fill="#FBE9A9" transform="translate(125,37)"/>
<path d="M0 0 C0.99 0.99 1.98 1.98 3 3 C1.35 4.32 -0.3 5.64 -2 7 C-2.33 6.01 -2.66 5.02 -3 4 C-1.5625 1.8125 -1.5625 1.8125 0 0 Z " fill="#9B7B2E" transform="translate(135,101)"/>
<path d="M0 0 C1.32 0.66 2.64 1.32 4 2 C2 3 0 4 -2 5 C-2.65555119 7.52733235 -2.65555119 7.52733235 -3 10 C-3.33 10 -3.66 10 -4 10 C-4.25 7.25 -4.25 7.25 -4 4 C-2 1.625 -2 1.625 0 0 Z " fill="#DCD6D2" transform="translate(85,91)"/>
<path d="M0 0 C0.33 0.66 0.66 1.32 1 2 C1.66 2 2.32 2 3 2 C2.6875 3.9375 2.6875 3.9375 2 6 C1.01 6.33 0.02 6.66 -1 7 C-0.67 4.69 -0.34 2.38 0 0 Z " fill="#5A3711" transform="translate(103,78)"/>
<path d="M0 0 C0.33 0 0.66 0 1 0 C0.88601335 1.62580966 0.75844341 3.25067157 0.625 4.875 C0.52058594 6.23238281 0.52058594 6.23238281 0.4140625 7.6171875 C0 10 0 10 -2 12 C-2.05422947 10.5629191 -2.09289723 9.12524538 -2.125 7.6875 C-2.14820313 6.88699219 -2.17140625 6.08648437 -2.1953125 5.26171875 C-2 3 -2 3 0 0 Z " fill="#9E7724" transform="translate(155,76)"/>
<path d="M0 0 C1.32 0 2.64 0 4 0 C3.67 1.32 3.34 2.64 3 4 C1.35 4 -0.3 4 -2 4 C-1.34 2.68 -0.68 1.36 0 0 Z " fill="#876C2E" transform="translate(109,50)"/>
<path d="M0 0 C3.50339864 1.84389402 5.78524611 3.11278755 7 7 C6.67 7.99 6.34 8.98 6 10 C3.78286492 6.74820188 1.65167557 3.5786304 0 0 Z " fill="#E7B01A" transform="translate(145,39)"/>
<path d="M0 0 C0.66 0.66 1.32 1.32 2 2 C-4.625 5.125 -4.625 5.125 -8 4 C-5.53721199 1.53721199 -3.29323018 1.00228745 0 0 Z " fill="#B78922" transform="translate(119,112)"/>
<path d="M0 0 C0.66 0 1.32 0 2 0 C2 0.66 2 1.32 2 2 C3.65 2.33 5.3 2.66 7 3 C7 3.99 7 4.98 7 6 C2.32307692 4.52307692 2.32307692 4.52307692 0.6875 1.875 C0.460625 1.25625 0.23375 0.6375 0 0 Z " fill="#CCA645" transform="translate(68,105)"/>
<path d="M0 0 C0.66 0 1.32 0 2 0 C1.45276317 3.37462715 0.9451 5.08235 -1 8 C-1.66 8 -2.32 8 -3 8 C-1.125 2.25 -1.125 2.25 0 0 Z " fill="#5E3B12" transform="translate(174,75)"/>
<path d="M0 0 C2.125 0.375 2.125 0.375 4 1 C3.01 1.33 2.02 1.66 1 2 C-0.20882096 4.00016466 -0.20882096 4.00016466 -1 6 C-1.99 6 -2.98 6 -4 6 C-2.84826645 3.53199953 -1.95216435 1.95216435 0 0 Z " fill="#CDA015" transform="translate(100,58)"/>
<path d="M0 0 C1.5 1.25 1.5 1.25 3 3 C3 4.32 3 5.64 3 7 C0 6 0 6 -1.1875 3.9375 C-1.5896875 2.9784375 -1.5896875 2.9784375 -2 2 C-1.34 2 -0.68 2 0 2 C0 1.34 0 0.68 0 0 Z " fill="#947225" transform="translate(151,39)"/>
<path d="M0 0 C1.65 0.33 3.3 0.66 5 1 C4.67 2.32 4.34 3.64 4 5 C2.68 4.34 1.36 3.68 0 3 C-0.33 3.99 -0.66 4.98 -1 6 C-0.67 4.02 -0.34 2.04 0 0 Z " fill="#593612" transform="translate(50,38)"/>
<path d="M0 0 C0.66 0.99 1.32 1.98 2 3 C-0.8125 4.5625 -0.8125 4.5625 -4 6 C-4.99 5.67 -5.98 5.34 -7 5 C-4.69 3.35 -2.38 1.7 0 0 Z " fill="#D1A023" transform="translate(122,108)"/>
<path d="M0 0 C1.32 1.32 2.64 2.64 4 4 C3.67 4.66 3.34 5.32 3 6 C2.01 6 1.02 6 0 6 C-0.66 4.35 -1.32 2.7 -2 1 C-1.34 0.67 -0.68 0.34 0 0 Z " fill="#A88121" transform="translate(49,102)"/>
<path d="M0 0 C0.33 0 0.66 0 1 0 C1.25 7.625 1.25 7.625 -1 11 C-2.60080151 6.99799622 -1.29279692 3.95443764 0 0 Z " fill="#452514" transform="translate(94,93)"/>
<path d="M0 0 C0.99 0 1.98 0 3 0 C3 1.65 3 3.3 3 5 C2.01 5.33 1.02 5.66 0 6 C0 4.02 0 2.04 0 0 Z " fill="#42220E" transform="translate(123,94)"/>
<path d="M0 0 C1.1875 1.6875 1.1875 1.6875 2 4 C0.625 6.75 0.625 6.75 -1 9 C-1.66 8.67 -2.32 8.34 -3 8 C-1.125 2.25 -1.125 2.25 0 0 Z " fill="#B88A16" transform="translate(67,64)"/>
<path d="M0 0 C0.33 0.99 0.66 1.98 1 3 C1.66 3 2.32 3 3 3 C1.25 6.875 1.25 6.875 -1 8 C-0.67 5.36 -0.34 2.72 0 0 Z " fill="#DAC59A" transform="translate(81,50)"/>
<path d="M0 0 C0.598125 0.20625 1.19625 0.4125 1.8125 0.625 C0.8225 2.11 0.8225 2.11 -0.1875 3.625 C-2.6625 2.635 -2.6625 2.635 -5.1875 1.625 C-2.1875 -0.375 -2.1875 -0.375 0 0 Z " fill="#AE9650" transform="translate(107.1875,50.375)"/>
<path d="M0 0 C0.99 0.33 1.98 0.66 3 1 C3 1.99 3 2.98 3 4 C2.01 3.67 1.02 3.34 0 3 C-0.33 3.99 -0.66 4.98 -1 6 C-1.33 5.01 -1.66 4.02 -2 3 C-1.34 2.01 -0.68 1.02 0 0 Z " fill="#C0931F" transform="translate(52,31)"/>
<path d="M0 0 C1.9375 0.75 1.9375 0.75 4 2 C4.75 4.125 4.75 4.125 5 6 C2.525 5.01 2.525 5.01 0 4 C0 2.68 0 1.36 0 0 Z " fill="#AF8A33" transform="translate(125,25)"/>
<path d="M0 0 C2.3125 -0.25 2.3125 -0.25 5 0 C6.8125 2 6.8125 2 8 4 C4.31245243 3.50168276 2.39509338 2.89932357 0 0 Z " fill="#AD8324" transform="translate(127,23)"/>
<path d="M0 0 C2.64 0.33 5.28 0.66 8 1 C7.01 1.33 6.02 1.66 5 2 C5 2.66 5 3.32 5 4 C2.525 3.01 2.525 3.01 0 2 C0 1.34 0 0.68 0 0 Z " fill="#AF8525" transform="translate(96,20)"/>
<path d="M0 0 C1.670625 0.061875 1.670625 0.061875 3.375 0.125 C3.375 0.785 3.375 1.445 3.375 2.125 C2.055 1.795 0.735 1.465 -0.625 1.125 C-0.625 1.785 -0.625 2.445 -0.625 3.125 C-2.275 2.795 -3.925 2.465 -5.625 2.125 C-3.625 0.125 -3.625 0.125 0 0 Z " fill="#C9A03C" transform="translate(114.625,20.875)"/>
</svg>
